<?xml version="1.0" encoding="utf-8"?>
<!-- Generator: Adobe Illustrator 22.0.1, SVG Export Plug-In . SVG Version: 6.00 Build 0)  -->
<svg version="1.1" id="Layer_1" xmlns="http://www.w3.org/2000/svg" xmlns:xlink="http://www.w3.org/1999/xlink" x="0px" y="0px"
	 viewBox="0 0 159 188.3" style="enable-background:new 0 0 159 188.3;" xml:space="preserve">
<style type="text/css">
	.st0{fill:#F5E7E7;}
	.st1{fill:#9B0000;stroke:#9B0000;}
	.st2{fill:#FEFEFE;}
</style>
<path class="st0" d="M53.1,76.4c-7.4,1.6-13.7,5.7-20.5,8.7c-4.2,1.9-8.5,3.4-13,4.3c-7,1.3-13.4-3.2-14.8-9.9
	c-1.1-5.4,4.3-11.6,10.7-13.1c9.7-2.2,18.1-7.5,26.8-12C52.5,49.3,63,45,73.5,41.1c10.5-3.9,18.3,1.2,18.1,11c0,2.3-1,4.1-2.1,6.1
	c-4.2,7.9-8.2,15.8-13,25c7.2-2.7,11.2-7.2,15.8-10.7c7.2-5.4,14.9-9.9,22.2-15c4.9-3.4,11.6-2.8,15.7,0.9c4.5,4.1,5.6,9.8,2.7,15.4
	c-3.1,6-6.5,11.8-9.8,17.8c-0.7,1.2-1.9,2.3-1.3,4c2.1,0.6,3-1.2,3.9-2.4c3.2-3.9,7.2-5.1,12.2-4.8c4,0.2,7.5,1.3,8.8,5.2
	c1.3,4.3,2.5,9.1-1.2,12.9c-15.6,15.9-32.1,30.9-50.4,43.7c-6.8,4.8-13,4.1-18.3-1.1c-4.2-4-3.4-8.6-1.8-13.1
	c2.9-8.1,6.5-15.8,10.4-23.5c0.7-1.4,1-3,2-6.2c-5.6,4.4-10.1,7.6-14.3,11.1c-6,5-11.9,10.3-17.7,15.4c-4.5,3.9-10.2,5-14.1,2.4
	c-5.9-3.9-7.8-9.1-5.9-15.5c4-13.1,9.1-25.7,15.6-37.8C52.1,80.3,52.5,78.3,53.1,76.4c0.1-0.1,0.2-0.3,0.3-0.5
	C53.3,76.1,53.2,76.2,53.1,76.4z"/>
<g id="stress2" transform="translate(-5.6 -4.1)">
	<g id="Group_84" transform="translate(25.645 71.173)">
		<path id="Path_120" class="st1" d="M48,58v4.7c0,0.6,0.5,1.2,1.1,1.2c0.6,0,1.2-0.5,1.2-1.1c0,0,0,0,0,0V58c0-0.6-0.4-1.1-1-1.2
			c0,0-0.1,0-0.1,0C48.5,56.9,48,57.4,48,58z"/>
	</g>
	<g id="Group_85" transform="translate(6.112 8.769)">
		<path id="Path_121" class="st1" d="M48.1,63.7l3.4,5.9c0.3,0.6,1,0.8,1.6,0.5c0.6-0.3,0.8-1,0.5-1.6c0,0,0,0,0,0l-2.4-4.1h2.6
			c0.7,0,1.2-0.6,1.1-1.2c0-0.2-0.1-0.4-0.2-0.6l-3.5-5.2c-0.4-0.5-1-0.6-1.5-0.2c-0.5,0.3-0.7,1-0.4,1.6c0,0,0,0,0,0.1l2.3,3.3
			h-2.5c-0.7,0-1.2,0.5-1.3,1.2C48,63.4,48,63.6,48.1,63.7z"/>
	</g>
	<g id="Group_86" transform="translate(59.747 8.775)">
		<path id="Path_122" class="st1" d="M54.8,62.6l-3.4-5.2c-0.3-0.5-1.1-0.7-1.6-0.3s-0.7,1.1-0.3,1.6l0,0l2.3,3.3h-2.5
			c-0.6,0-1.2,0.5-1.2,1.1c0,0.2,0,0.4,0.2,0.6l3.4,5.9c0.3,0.6,1,0.8,1.6,0.5c0.6-0.3,0.8-1,0.5-1.6l-2.4-4.1h2.6
			c0.6,0,1.1-0.5,1.1-1.1C55,62.9,54.9,62.7,54.8,62.6z"/>
	</g>
	<g id="Group_87" transform="translate(7.248 4.6)">
		<path id="Path_123" class="st1" d="M48,98.2c0,0.6,0.4,1.1,1,1.2c0,0,0.1,0,0.1,0h3.2c1.4,4,3.6,7.7,6.4,10.8
			c1.2,1.3,1.8,3.1,1.8,4.8v14.3c0,0.6,0.5,1.2,1.1,1.2c0.6,0,1.2-0.5,1.2-1.1c0,0,0,0,0,0v-14.1c0-2.3-0.8-4.6-2.4-6.3
			c-2.5-2.7-4.4-5.9-5.7-9.3h3.9l2.3,4.9c0.2,0.6,0.9,0.8,1.5,0.6c0.3-0.1,0.5-0.3,0.6-0.6l4.1-10l2.9,4.5c0.2,0.4,0.5,0.6,0.9,0.6
			h4.5l2.9,8.6c0.2,0.6,0.9,0.9,1.5,0.7c0.3-0.1,0.6-0.4,0.7-0.7L86,92.6l4.3,7.6c0.2,0.4,0.6,0.6,1,0.6h11.4l3.1,6.3h-5.3
			c-0.6,0-1.1,0.4-1.1,1c0,0,0,0.1,0,0.1v10.5c0,3.3-2.6,4.9-5.7,4.9h-6.1c-0.6,0-1.1,0.4-1.2,1c0,0,0,0.1,0,0.1v4.5
			c0,0.6,0.5,1.2,1.1,1.2c0.6,0,1.2-0.5,1.2-1.1c0,0,0,0,0,0v-3.6h4.9c0.1,0,3.9,0,6.2-2.3c1.3-1.3,1.9-3,1.8-4.8v-9.3h6
			c0.6,0,1.1-0.5,1.1-1.1c0-0.2,0-0.3-0.1-0.5l-3.4-6.9h2.4c0.6,0,1.2-0.5,1.2-1.1c0-0.6-0.5-1.2-1.1-1.2c0,0,0,0,0,0h-3.5l-1.7-3.3
			c-1.2-2.2-0.6-3.8-0.7-9.1c-0.7-8.3-6.4-15.4-14.5-17.7l-4.9-10.8c-0.2-0.4-0.6-0.7-1-0.7H71c-0.4,0-0.8,0.2-0.9,0.6
			c-0.2,0.3-0.2,0.8,0,1.1l3.4,5.4h-6.4c-0.6,0-1.1,0.6-1.1,1.3c0,0.3,0.1,0.5,0.3,0.7l2.4,2.8c-2.8,0.9-5.5,2.3-7.8,4.1
			c-6.2,4.5-9.8,11.7-9.8,19.3c0,1.7,0.2,3.3,0.6,4.9h-2.5c-0.6,0-1.1,0.4-1.1,1C48,98.1,48,98.2,48,98.2z M86.4,72.2h-6.3
			c-0.6,0.1-1.1,0.6-1.1,1.3c0,0.1,0,0.2,0,0.2l1.8,5.4L69.5,66.3h6c0.6,0,1.1-0.5,1.1-1.2c0-0.2-0.1-0.4-0.2-0.6l-3.4-5.4h7.6
			L86.4,72.2z M54,97.1c-0.5-1.6-0.7-3.2-0.7-4.8c0-6.9,3.3-13.5,8.9-17.6c2.4-1.8,5.2-3.2,8-4.1L83.1,85c0.4,0.5,1.2,0.5,1.6,0.1
			c0.3-0.3,0.5-0.8,0.3-1.2l-3.2-9.3h6.6c0.6,0,1.1-0.5,1.1-1.1c0-0.2,0-0.3-0.1-0.5l-0.7-1.7c6.1,2.4,10.3,8.1,10.8,14.7
			c0.1,5.1-0.6,7.1,0.9,10.1l1.2,2.3H92l-5.2-9.2c-0.3-0.5-1.1-0.7-1.6-0.4c-0.2,0.1-0.4,0.3-0.5,0.6l-5.3,14.7l-2.1-6.3
			c-0.1-0.5-0.6-0.8-1-0.8h-4.7L68,91.2c-0.4-0.5-1.2-0.6-1.7-0.2c-0.1,0.1-0.2,0.2-0.3,0.4l-4,9.5l-1.5-3.2c-0.2-0.4-0.6-0.7-1-0.7
			L54,97.1L54,97.1z"/>
	</g>
</g>
<path class="st2" d="M234,87.4c0.1-0.1,0.2-0.3,0.2-0.4C234.1,87.1,234.1,87.3,234,87.4C234,87.4,234,87.4,234,87.4z"/>
</svg>
