<svg xmlns="http://www.w3.org/2000/svg" xmlns:xlink="http://www.w3.org/1999/xlink" viewBox="0 0 401 356.39"><defs><style>.cls-1{fill:none;}.cls-2{clip-path:url(#clip-path);}.cls-3{fill:#6100ee;}.cls-4{fill:#373737;}.cls-5{fill:#fff;}</style><clipPath id="clip-path"><path class="cls-1" d="M150.67,345.09a167.78,167.78,0,1,1,37.53,4.21,167.68,167.68,0,0,1-37.53-4.21"/></clipPath></defs><title>jonathan3_1</title><g id="Layer_2" data-name="Layer 2"><g id="Layer_1-2" data-name="Layer 1"><g class="cls-2"><path class="cls-3" d="M0,356.39V0H401V356.39"/><path class="cls-4" d="M215.49,141.46h-6a11.92,11.92,0,0,1,.67,2.88c-.17,2.69-.78,5.39-.66,8.06a8.84,8.84,0,0,0,1.87,4.93,10.71,10.71,0,0,1,2.71,8.78,5.18,5.18,0,0,0,1,2.77,36.11,36.11,0,0,0,2.18,3.1l-.36.6,4-.21-.92-3.39c3.69,2.13,8,2.68,9.62,6.72,2.54-.86,3.86-2.26,3.63-4.92-.05-.63.82-1.34,1.26-2l1.73,1c.12-.46.28-.72.22-.92-.13-.55-.44-1.06-.53-1.61s-.31-1.45,0-1.85a16.67,16.67,0,0,0,3.16-11.74c-.1-1.19,2.61-4.91,3.73-4.93,1.55,0,2.1-.92,2.74-2.06.84-1.49,1.92-2.84,2.86-4.27a14.59,14.59,0,0,0,.78-1.53l-2-.78a34.27,34.27,0,0,0,1.11-4.44c0-.31-.94-1-1.52-1.09a25.25,25.25,0,0,0-3.59,0l0-.62,2.69-.84-.14-.71h-8l-.1.81,3.51.84c-3.17,1.15-5.92,2.27-8.77,3.11a14.47,14.47,0,0,1-4.07.19c-1.07,0-2.81-.58-3.08-.16-1,1.62-2.39.66-3.55,1-2.31.6-4,.12-4.52-2.76l-2.81,1.62a38.29,38.29,0,0,0-.93-4.74,2.3,2.3,0,0,0-1.67-1.1c-.36,0-1.14.75-1.17,1.21a3.73,3.73,0,0,0,.64,2.15,7.34,7.34,0,0,0,1.68,1.37l-2,1.81c.87,2.32.88,2.3,3.67,3.1.34.1.59.53.88.8Z"/><path class="cls-4" d="M199.31,190.19c-1.44-3.66-2.13-4-5.79-3.76a14.9,14.9,0,0,1-3.2-.15c-1.69-.24-3.34-.68-5-.89-2.88-.36-6.11.09-8.59-1.09-2.68-1.27-3.06,1.67-4.8,1.51,0,1.1-.27,2.34.14,3.26,1.64,3.7,4.75,5.29,8.69,5.45.82,0,2.16-.18,2.37.2,1.07,2,2.83,1.3,4.37,1.49,2.1.25,4.18.63,6.28.72a20.62,20.62,0,0,0,3.87-.5c.87-.12,1.74-.26,2.61-.4l5.74-.92.59.64c3.95-4.41,4.41-6.23,2.06-8.31a4.36,4.36,0,0,0-.68.61c-1.81,2.38-1.66,2.25-3.56.1-.51-.58-2.27-.33-3.35,0C200.42,188.27,200,189.27,199.31,190.19Z"/><path class="cls-4" d="M238.75,198.94c2.6.54,4-1.6,3.17-4.37Z"/><path class="cls-5" d="M150.08,345.09c-1.09-7.43-.8-26.66-1.15-34-.06-1.16.11-2.34,0-3.49-.34-3.1,2.39-4.27,3.84-6.23a1.46,1.46,0,0,1,1.39-.23c2.95,1.69,5.69-1,8.58-.37.1,0,.28-.33.65-.78l-3.39-.71c.14-.29.21-.55.26-.55,2.83.13,3.46-1.4,3.24-3.91-.11-1.17.54-2.38.57-3.58a3.93,3.93,0,0,0-.7-2.58c-1.07-1.14-2.05-2-.39-3.41a1.92,1.92,0,0,0,.35-1.62,28.31,28.31,0,0,0-1.79-5.38c-.21-.43-1.9-.56-2.6-.21a8,8,0,0,0-2.81,2.5c-2.66,3.8-5.3,7.46-6,12.43-.47,3.49-2.65,6.75-4.25,10.56-.49-3.79-1.23-7.09-1.29-10.4-.15-8.58-.11-17.17.07-25.74s.59-17.41,1-26.11c.16-3.21.5-6.42,1-9.6.14-1,1.28-1.87,1.38-2.86.43-4.42.65-8.85.93-13.28,0-.75,0-1.51,0-2.25.19-1.82.88-2.36,2.27-.81l1.21,2.28a12.61,12.61,0,0,0,5.05,7.57l1.36,1.69c2.47,3.7,4.72,7.56,7.47,11,3,3.76,6.88,6.84,9.5,10.8,2.38,3.59,5.76,3.42,9,4.22.61.15,1.59.21,1.76.59,1.14,2.63,3.44,2.76,5.73,2.82,1.51,0,2.5.23,2.65,2.11.19,2.34,1.85,1.07,2.8,1.4a28.78,28.78,0,0,1,2.82,1.59,15.17,15.17,0,0,1,1.77,1.81,11.72,11.72,0,0,1-1.75,1.57,6,6,0,0,1-1.87.33c.91,1.49,4.25-.29,3.55,2.47l-8,4,10.4,3.31-3.55.89c2.08,3,4.08,3.56,6.76,1.51,3-2.28,5.69-4.9,8.6-7.27,3.4-2.76,6.94-5.37,10.34-8.13,1.76-1.43,3.33-3.08,5-4.6,2.75-2.47,5.5-5,8.35-7.32.31-.25,1.3.34,2,.53l2.71,3.6c.36,1.83.07,4.07,2.8,4.38a15.59,15.59,0,0,0-.74,2c-.75,3.51-.58,7.58-2.38,10.41-2.67,4.19-3,9.18-5.69,13.23-1.57,2.35-2.94,4.84-4.4,7.28,1,1,1.17,1.78.18,3.28-1.35,2-2,4.57-2.71,6.95-1.29,4.22-2.24,8.55-3.69,12.71-1.77,5.08-3.93,10-5.89,15-1.21,3.11-2.28,6.27-3.56,9.35-1.46,3.53-3.05,7.86-4.52,11.39,0,0-33.54,5.73-63.71-2.18M180.83,287c.21-2-.44-2.67-2.16-2.09l-2.32.76c-.19-.82-.19-2.22-.61-2.36-3.15-1-5-3-5.37-6.35a1.66,1.66,0,0,0-.53-.79,24.57,24.57,0,0,1-5.55-8.69,8,8,0,0,0-2-3.05c-3.16-3-4.25-7.16-6.24-10.79s-3.25-7.56-4.83-11.36l-.78.21a14.14,14.14,0,0,0,.26,3.34c1,3.12,2.12,6.21,3.32,9.27,1,2.62,2.23,5.16,3.33,7.75,1.24,2.93,2.36,5.92,3.71,8.8,1.22,2.6,2.1,5.8,4.16,7.49,3.28,2.69,7.41,4.35,11.18,6.44,1.17,1.19,1.89,3.59,4.26,1.61a12.65,12.65,0,0,0,1.25,3.5c.3.43,1.65.11,2.52.14-1.29,2.25-1.12,2.74,1.12,3.16a24.19,24.19,0,0,1,1.34,2.94c1.27,4.14,2.29,8.36,3.73,12.43.79,2.21,2.23,4.18,3.66,6.77.78-2.12,3.47-2.92,1.2-4.94,0,0,.15-.41.26-.61,2.62-4.66.33-7.43-3.6-8.56-1.44-2.33-2.78-4.19-3.78-6.23A2.72,2.72,0,0,0,185.5,294c.31-.74.61-1.48,1-2.41l-1.86-1,1-3.45L185,287l-2,1.67Zm32.63,3.94c.1,1.22.19,2.43.33,4.19l1.05.85c.25-.38.41-.64.6-.89s.44-.5.66-.75l.69.27q-1.26,4.79-2.51,9.58l.77.34c.67-1,2.11-2.36,1.86-3.05-1-2.71.63-4.26,1.87-6.12.8-1.2,1.53-2.51.16-3.92-1.6-1.64-3.09-3.38-4.66-5-2.27-2.42-4.56-4.82-6.84-7.23.39,2-2.34,5,1.84,5.69.35.06.91.81.84,1.12-.72,3,1.84,3.74,3.41,5.17Zm10.7,9.15-.8-1.49L220,301.84l1.76,1.39C222.54,302.18,223.28,301.2,224.16,300.05Zm-4.45,14.73-8.54.39C214.82,316.57,219.13,316.16,219.71,314.78Zm-9.57,15.27,0-1c-1.72.11-3.44.18-5.14.41-.14,0-.15,1-.24,1.7Z"/><path class="cls-5" d="M152.48,214.72l-1.21-2.28c-2.65-4.4-5.81-8.59-7.82-13.28-2.43-5.66-5.38-11-6.37-17.5-.88-5.74-.52-11.4-1.29-17a2.52,2.52,0,0,0-1.71-1.58,7.42,7.42,0,0,1-6.28-5.64,51.13,51.13,0,0,0-2.83-6.29c-.14-.3-.5-.72-.41-.85,2-2.9-.12-5.85,0-8.79.14-3.62,1-7.52-1.4-11-.73-1-.58-2.67-.84-4-.59-3.06-1.26-6.1-1.72-9.18-.07-.51.78-1.17,1.2-1.76.42.56,1.11,1.07,1.22,1.69.23,1.3-.07,2.71.26,4a15.23,15.23,0,0,0,1.93,3.32v-7.25l.81-.1c1.37,2.71,3.6,4.78,4.11,8.17.8,5.41,2.39,10.71,3.69,16.21,1.84-.71,2-1.93,2.05-3.44,0-3.56-.75-7.51.53-10.59,1.76-4.25.9-8.57,1.85-12.8s.35-8.61.36-12.94c0-3.17-.16-6.34-.1-9.51a32.59,32.59,0,0,1,.68-4.34c.07-.49.3-1.06.14-1.47-1.31-3.36-.06-6.24,1.45-9.15.32-.61,0-1.55.24-2.2a24.09,24.09,0,0,1,2.8-5.55c1.18-1.49,2.79-2.56,2.76-4.75a1.91,1.91,0,0,1,.84-1.35c2.49-1.58,4.4-4,7.52-4.73,1-.24,1.71-1.79,2.76-2.35,8.77-4.7,18.28-4.89,27.87-4.28a55.7,55.7,0,0,1,7,1c.72.13,1.29,1,2,1.2,1.72.5,3.54,1.27,5.25,1.12,3.81-.34,6.75,1.49,9.72,3.27a23.43,23.43,0,0,1,4.84,3.62c2.4,2.49,4.53,5.24,6.78,7.88a6.91,6.91,0,0,0,.85.86c3.16,2.48,4,6.09,5.18,9.69.51,1.62,2.35,2.84,3.69,4.14.35.34,1.57.24,1.58.4.22,3.36,5.32,4,4.28,8.36-.44,1.81,1.09,4.1,1.84,6.54a5.76,5.76,0,0,0-1.32,5.93c.67,2.27-.51,5.12-1,7.69-.07.35-1,.66-1.63.73-2.94.37-5.88.65-8.83.94a2.87,2.87,0,0,1-1.24,0c-3.48-1.37-6.55-.17-9.7,1.27-1.2.54-2.79.33-4.2.32-3.64,0-6.49,1.07-8.2,4.68a40.57,40.57,0,0,1-4.33,6.73c-2,2.68-1.76,5.5-1.16,8.51a10.27,10.27,0,0,1-.38,3.06c-.51,3.79-.14,7.62-.6,11.47-.38,3.22-2.06,6.5-1.09,10,.21.75-.78,2.26-1.62,2.8-2.95,1.87-5.82,3.67-9.64,1.2-1.45-.93-4-1.73-6.06-.36a1.72,1.72,0,0,0-.78,1.31,1.68,1.68,0,0,0,1.2.94c2.76.42,5.54.71,8.3,1.09a3.78,3.78,0,0,1,1.58.55c2.57,1.72,5.14,3.44,7.65,5.25.83.6,1.39,1.59,2.24,2.15,1.66,1.1,3.44,2,5.15,3,.51.3,1,.67,1.48,1-.33.41-.58,1-1,1.2a13,13,0,0,1-4.25,1.42c-5.33.19-10.67.29-16,.07-2.95-.13-5.85-1.21-8.81-1.41-4.07-.27-8.16-.14-12.24-.14-1.16,0-2.38-.07-2.51,1.67s1,1.75,2.16,2.36a43.73,43.73,0,0,1,5.71,4.27,52.86,52.86,0,0,0,6.51,4.85c2,1.1,4.47,1.46,6.72,2.15l1.39.44c3.24,1,6.47,2.06,9.74,2.94.7.19,1.58-.37,2.38-.42a9.14,9.14,0,0,1,3.35.12c.89.29,1.57,1.2,2.35,1.83-.76.47-1.5,1-2.3,1.39a1.92,1.92,0,0,0-.36,3.09A19,19,0,0,1,199,209.3l-9.13.64c1.68,2.46,3.75,2.42,5.91,2.52,3.14.13,6.26.63,9.4.89a4.82,4.82,0,0,0,2.43-.3c1.54-.76,2.65-1,3.18,1.1.08.3,1.23.68,1.37.54a32.79,32.79,0,0,0,3.19-3.87c.85-1.26,1.17-3.09,2.29-3.91,1.74-1.29,1.35-2.15.69-2.78.61-1.72,1-3.08,1.56-4.4.75-1.91,1.55-3.8,2.36-5.68.16-.37.74-.83.65-1-1-1.8-.2-2.88,1.33-3.84a24.55,24.55,0,0,0,2.38-2.09c2.24-1.88,4.47-3.76,6.75-5.58.52-.41,1.48-1,1.82-.78.9.54,2.18,1.44,2.2,2.23a28.26,28.26,0,0,1-.8,6.31,45.7,45.7,0,0,1-4.51,13.29c-1.51,2.68-3.45,5.11-5.21,7.64-.14.2-.31.5-.5.53-3.26.5-4.43,3.3-6.24,5.47a7.35,7.35,0,0,1-3.38,2.5c-2.77.73-3.1,3.72-5.27,5s-3.75,3.27-5.67,4.85c-.46.37-1.26.29-1.86.52-.76.3-1.88.51-2.14,1.08-1.45,3.15-4.44,2.71-7,3.37-1,.25-1.81,1.14-2.79,1.35-2.24.49-4.61.48-6.79,1.15-4.12,1.27-7.41-.51-10.81-2.3-.84-.45-2.06-.23-2.83-.74a32.49,32.49,0,0,1-5.74-4.52c-1.53-1.62-2.85-3.11-5.27-3.22-.58,0-1.11-.85-1.67-1.32l-1.37-1.7c-.48-1-.93-2-1.44-3a9.58,9.58,0,0,0-1.07-1.61C154.2,216.65,153.33,215.69,152.48,214.72Zm-1.15-97.4-6.23,1c1.08,2.34,1.06,2.31,3.06,1.1a3.37,3.37,0,0,1,1.62-.42c4.08,0,8.16,0,12.25,0a13,13,0,0,1,2.18.41l0,.67c-5.54,1.57-11.39,2.46-15.68,7.32,3.07-.67,1.26,2.53,2.17,3h7.93c-.06-.83-.54-2.14-.1-3s1.81-.82,3-1.28c-.14,3.72,1,5.18,4.16,5.74.73.13,2,.21,2.07.49.42,2.44,2.38,1.83,3.88,2.15.2,0,.36.28.59.47l-1.78,1.58c1.09.11,1.79.4,2.3.2,4.42-1.73,5.78-6.44,9.4-9.48-2.72-2.54-4.29-5.4-3.88-9.16.08-.75-1.18-2-2.1-2.43-4.53-2-9.37-2.27-14.28-2.24a4.27,4.27,0,0,0-4.34,2.85,4.2,4.2,0,0,1-2,1.61c-.3.14-1.36-.5-1.33-.65a14.78,14.78,0,0,1,.82-2.43C152,114.38,151.86,114.43,151.33,117.32ZM165,164.5c-6.56,2.86-12.1,6.67-15.41,13.11l3.73,4C157.5,175.72,163.24,171.44,165,164.5Zm-35.33-24.2v-7.89C127.12,135.07,128.36,137.41,129.65,140.3Z"/><path class="cls-5" d="M215.42,141.53c-.29-.27-.54-.7-.88-.8-2.79-.8-2.8-.78-3.67-3.1l2-1.81a7.34,7.34,0,0,1-1.68-1.37,3.73,3.73,0,0,1-.64-2.15c0-.46.81-1.25,1.17-1.21a2.3,2.3,0,0,1,1.67,1.1,38.29,38.29,0,0,1,.93,4.74l2.81-1.62c.56,2.88,2.21,3.36,4.52,2.76,1.16-.3,2.54.66,3.55-1,.27-.42,2,.15,3.08.16a14.47,14.47,0,0,0,4.07-.19c2.85-.84,5.6-2,8.77-3.11l-3.51-.84.1-.81h8l.14.71-2.69.84,0,.62a25.25,25.25,0,0,1,3.59,0c.58.08,1.56.78,1.52,1.09a34.27,34.27,0,0,1-1.11,4.44l2,.78a14.59,14.59,0,0,1-.78,1.53c-.94,1.43-2,2.78-2.86,4.27-.64,1.14-1.19,2-2.74,2.06-1.12,0-3.83,3.74-3.73,4.93A16.67,16.67,0,0,1,236,165.38c-.3.4-.09,1.24,0,1.85s.4,1.06.53,1.61c.06.2-.1.46-.22.92l-1.73-1c-.44.68-1.31,1.39-1.26,2,.23,2.66-1.09,4.06-3.63,4.92-1.63-4-5.93-4.59-9.62-6.72l.92,3.39-4,.21.36-.6a36.11,36.11,0,0,1-2.18-3.1,5.18,5.18,0,0,1-1-2.77,10.71,10.71,0,0,0-2.71-8.78,8.84,8.84,0,0,1-1.87-4.93c-.12-2.67.49-5.37.66-8.06a11.92,11.92,0,0,0-.67-2.88h6c.26.41.5,1.16.78,1.17,2.89.12,5.8.16,8.7.09.27,0,.53-.83.79-1.27-.46-.24-.95-.71-1.4-.68C221.38,141,218.4,141.27,215.42,141.53Z"/><path class="cls-5" d="M199.31,190.19c.72-.92,1.11-1.92,1.72-2.08,1.08-.29,2.84-.54,3.35,0,1.9,2.15,1.75,2.28,3.56-.1a4.36,4.36,0,0,1,.68-.61c2.35,2.08,1.89,3.9-2.06,8.31l-.59-.64-5.74.92c-.87.14-1.74.28-2.61.4a20.62,20.62,0,0,1-3.87.5c-2.1-.09-4.18-.47-6.28-.72-1.54-.19-3.3.47-4.37-1.49-.21-.38-1.55-.16-2.37-.2-3.94-.16-7-1.75-8.69-5.45-.41-.92-.11-2.16-.14-3.26,1.74.16,2.12-2.78,4.8-1.51,2.48,1.18,5.71.73,8.59,1.09,1.69.21,3.34.65,5,.89a14.9,14.9,0,0,0,3.2.15C197.18,186.15,197.87,186.53,199.31,190.19Z"/><path class="cls-5" d="M245,251.21l-2.71-3.6c.12-.91-.1-2.08.39-2.69,1.85-2.28,3.93-4.38,5.93-6.57,2.41,2.57,2,4.68.08,6.77l2.67.63c-1,.84-1.94,1.6-2.83,2.42-1.71,1.55-1.91,2.5.55,3.88,1.37.77.27,2.66-1.21,3.52-.11-.68,0-1.53-.37-2A19.24,19.24,0,0,0,245,251.21Z"/><path class="cls-5" d="M238.75,198.94l3.17-4.37C242.77,197.34,241.35,199.48,238.75,198.94Z"/><path class="cls-3" d="M176.42,285.55c-3.76-2.1-7.89-3.76-11.17-6.45-2.06-1.69-2.94-4.89-4.16-7.49-1.35-2.88-2.47-5.87-3.71-8.8-1.1-2.59-2.31-5.13-3.33-7.75-1.2-3.06-2.32-6.15-3.32-9.27a14.14,14.14,0,0,1-.26-3.34l.78-.21c1.58,3.8,2.85,7.78,4.83,11.36s3.08,7.81,6.24,10.79a8,8,0,0,1,2,3.05,24.57,24.57,0,0,0,5.55,8.69,1.66,1.66,0,0,1,.53.79c.34,3.36,2.22,5.31,5.37,6.35.42.14.42,1.54.61,2.35Z"/><path class="cls-3" d="M185.5,294a2.72,2.72,0,0,1,2.89,1.73c1,2,2.34,3.9,3.78,6.23,3.93,1.13,6.22,3.9,3.6,8.56-.11.2-.31.56-.26.61,2.27,2-.42,2.82-1.2,4.94-1.43-2.59-2.87-4.56-3.66-6.77-1.44-4.07-2.46-8.29-3.73-12.43a24.19,24.19,0,0,0-1.34-2.94Z"/><path class="cls-4" d="M210.14,330.05l-5.43,1.13c.09-.65.1-1.68.24-1.7,1.7-.23,3.42-.3,5.14-.41Z"/><path class="cls-3" d="M184.46,290.79l.17-.17,1.86,1c-.38.93-.68,1.67-1,2.41l.08-.07C183.34,293.53,183.17,293,184.46,290.79Z"/><path class="cls-3" d="M213.53,291.1l-.59-2.52.75-.46,1.72,2.33-1.94.45Z"/><polygon class="cls-3" points="225.24 142.88 225.76 141.44 224.55 140.51 215.55 141.51 216.17 142.74 225.24 142.88"/></g></g></g></svg>