<?xml version="1.0" encoding="utf-8"?>
<!-- Generator: Adobe Illustrator 22.0.1, SVG Export Plug-In . SVG Version: 6.00 Build 0)  -->
<svg version="1.1" id="Layer_1" xmlns="http://www.w3.org/2000/svg" xmlns:xlink="http://www.w3.org/1999/xlink" x="0px" y="0px"
	 viewBox="0 0 150.2 132.4" style="enable-background:new 0 0 150.2 132.4;" xml:space="preserve">
<style type="text/css">
	.st0{fill:#F5E7E7;}
	.st1{fill:#FEFEFE;}
	.st2{fill:#9B0000;stroke:#F4F4F4;stroke-miterlimit:10;}
	.st3{fill:#9B0000;}
	.st4{fill:#9B0000;stroke:#9B0000;}
	.st5{fill:#9B0000;stroke:#9B0000;stroke-miterlimit:10;}
</style>
<path class="st0" d="M50.1,48.6c-7.6,1.6-14,5.9-21,8.9c-4.8,2.1-9.6,3.9-14.8,3.9C8.8,61.5,3.8,56.8,3,51.2
	c-0.6-4.4,3.6-11,8.3-11.9c12.2-2.5,22.3-9.8,33.5-14.6C55,20.3,64.7,14.4,76.1,13.2c4.4-0.5,8,1.3,10,4.9c2.3,4,2.3,8.2-0.3,12.7
	c-4.5,7.7-8.3,15.7-12.5,23.7c1.7,1.2,2.6-0.2,3.7-1c10.5-8.2,21.4-15.9,32.7-23c5-3.2,11.8-2.8,15.8,0.9c4.3,3.9,5.2,9.5,2.4,15.1
	c-2.7,5.2-5.5,10.4-8.3,15.6c-0.7,1.3-2.9,2.7-1.3,4.1c1.7,1.5,2.7-0.9,3.7-1.9c2.6-2.9,5.8-3.8,9.6-3.8c4.4,0,8.6,0.6,10,5.3
	c1.3,4.5,2.1,9.2-2.1,13.3c-15.1,14.9-30.7,29.1-48,41.4c-7.6,5.4-12.6,4.6-18.6-1.3c-3.8-3.8-3.9-7.7-1.9-12.2
	c3.4-7.4,6.8-14.8,10.2-22.3c0.8-1.7,1.4-3.4,2.1-5.2c-0.4-0.3-0.8-0.6-1.1-0.9C75.5,84,69.1,89.7,62.2,94.8
	c-5.1,3.8-8.7,9.4-15,11.8c-4.2,1.6-7.5,0.8-10.7-2.3c-3.4-3.3-5.6-6.8-4.1-11.8c3.8-13.2,9.2-25.7,15.4-37.9
	C48.9,52.7,49.4,50.6,50.1,48.6c0.1-0.1,0.2-0.3,0.2-0.5C50.3,48.3,50.2,48.5,50.1,48.6z"/>
<path class="st1" d="M333,47.4c0.1-0.1,0.2-0.3,0.2-0.4C333.2,47.1,333.1,47.3,333,47.4C333,47.4,333,47.4,333,47.4z"/>
<g id="Group_57" transform="translate(0.5 0.592)">
	<g id="Group_56">
		<g id="Group_55" transform="translate(23.76 0.939)">
			<g id="Group_54">
				<path id="Path_84" class="st2" d="M42.5,51.5"/>
				<path id="Path_85" class="st2" d="M57.6,51.8c3.1-2.3,5-6,5-9.9v-5c0-5.4-4.4-9.9-9.9-9.9h-4.9c-5.4,0-9.9,4.4-9.9,9.9v5
					c0,3.7,1.7,7.2,4.6,9.6C42.5,51.5,49.9,56.4,57.6,51.8z M50.3,49.6c-4.2,0-7.7-3.4-7.7-7.7v-5l0,0c0-2.9,2.3-5.2,5.2-5.2
					c0,0,0,0,0,0h5c2.9,0,5.2,2.3,5.2,5.2v5C57.9,46.1,54.5,49.6,50.3,49.6z"/>
			</g>
		</g>
		<path id="Path_86" class="st3" d="M124.8,63.1c0.8-1.6,1.7-3.2,2.4-4.8"/>
		<path id="Path_87" class="st3" d="M101,57.9c0.6,1.7,1.3,3.4,2.1,5"/>
		<path id="Path_88" class="st4" d="M41.8,35.2c-0.6-0.3-1.2-0.1-1.5,0.5s-0.1,1.2,0.5,1.5l6.9,3.4c0.2,0.1,0.3,0.1,0.5,0.1
			c0.4,0,0.8-0.2,1-0.6c0.3-0.6,0.1-1.2-0.5-1.5c0,0,0,0,0,0L41.8,35.2z"/>
		<path id="Path_89" class="st4" d="M51.6,37.3c0.3,0,0.6-0.1,0.8-0.3c0.4-0.5,0.4-1.2,0-1.6l-8-8c-0.5-0.4-1.2-0.4-1.6,0
			c-0.4,0.5-0.4,1.2,0,1.6l8,8C51,37.2,51.3,37.3,51.6,37.3z"/>
		<path id="Path_90" class="st4" d="M100.6,40.7c0.2,0,0.3,0,0.5-0.1l6.9-3.4c0.6-0.3,0.8-1,0.5-1.5c-0.3-0.6-1-0.8-1.5-0.5l0,0
			l-6.9,3.4c-0.6,0.3-0.8,0.9-0.5,1.5c0,0,0,0,0,0C99.8,40.5,100.2,40.8,100.6,40.7z"/>
		<path id="Path_91" class="st4" d="M106,27.4c-0.5-0.4-1.2-0.4-1.6,0l-8,8c-0.4,0.5-0.4,1.2,0,1.6c0.4,0.4,1.1,0.4,1.6,0l8-8
			C106.4,28.6,106.5,27.9,106,27.4C106,27.4,106,27.4,106,27.4z"/>
		<path id="Path_92" class="st3" d="M49,87h12c0.6,0,1.1-0.6,1.1-1.2c0-0.6-0.5-1.1-1.1-1.1H49c-0.6,0-1.1,0.6-1.1,1.2
			C47.9,86.5,48.4,86.9,49,87z"/>
		<ellipse id="Ellipse_14" class="st3" cx="66.4" cy="85.8" rx="1.2" ry="1.2"/>
		<path id="Path_93" class="st3" d="M87.5,87h12c0.6,0,1.1-0.6,1.1-1.2c0-0.6-0.5-1.1-1.1-1.1h-12c-0.6,0-1.2,0.5-1.2,1.2
			C86.4,86.4,86.9,86.9,87.5,87z"/>
		<ellipse id="Ellipse_15" class="st3" cx="82.1" cy="85.8" rx="1.2" ry="1.2"/>
		<path id="Path_94" class="st5" d="M106.3,67h-1.8c0.3-0.5,0.4-1,0.5-1.5c0.3-1.1,0.3-2.3-0.1-3.3c-1.4-3.6-4.5-10.8-7.3-16.6
			c-1.9-4-5.9-6.5-10.3-6.6h-1.1c-0.2,0.8-0.4,1.5-0.5,2.3h1.6c3.5,0,6.7,2.1,8.2,5.3c2.7,5.7,5.8,12.8,7.2,16.4
			c0.2,0.6,0.3,1.3,0.1,1.9c0,0.1,0,0.1,0,0.2c-0.1,0.8-0.6,1.5-1.3,1.9h-21c-0.6-0.6-0.9-1.4-1-2.2c0-0.8,0.3-1.5,0.8-2
			c0.5-0.5,1.2-0.8,1.9-0.8l10.1-0.1c0.8,0,1.5-0.4,1.9-1c0.4-0.6,0.5-1.5,0.2-2.2c-1.4-3.1-4.4-8.8-4.8-9.5
			c-0.4-0.7-1.2-1.1-1.9-1.1c-0.2,0-0.4,0-0.6,0.1c-1,0.3-1.7,1.2-1.7,2.2v5.1l-3.1,0c-3.4,0.1-6.5,2-8.1,5c-0.4-0.8-1-1.6-1.6-2.3
			c-1.7-1.8-4-2.8-6.5-2.8l-2.6,0v-4.9c0-1.1-0.7-2-1.8-2.2c-0.2,0-0.3-0.1-0.5-0.1c-0.9,0-1.7,0.5-2.1,1.3c-0.1,0.3-0.4,1-1.2,3
			c-0.8,1.9-1.8,4.5-2.6,6.2C55,59.2,55,60,55.5,60.6c0.4,0.6,1.1,1,1.9,1l8.7,0.1c1.5,0.1,2.7,1.3,2.7,2.9c0,0.9-0.5,1.8-1.2,2.3
			h-20c-0.6-0.3-1-0.8-1.3-1.4c0-0.1,0-0.1-0.1-0.2c-0.4-0.7-0.4-1.6-0.1-2.4c1.4-3.5,4.6-10.9,7.2-16.4c1.5-3.2,4.7-5.2,8.2-5.3
			h1.2c-0.3-0.7-0.6-1.5-0.8-2.3h-0.4c-4.4,0-8.4,2.6-10.3,6.6c-2.7,5.6-5.9,13.1-7.3,16.6c-0.5,1.4-0.5,2.9,0.2,4.3
			c0.1,0.2,0.2,0.4,0.3,0.5h-2c-2.5,0-4.5,2-4.5,4.5c0,2.5,2,4.6,4.5,4.6v22.8h63.9V76.1c2.5,0,4.5-2,4.5-4.6
			C110.9,69,108.9,67,106.3,67L106.3,67z M82.2,57.6l5.4,0v-7.3c0.4,0.7,3.4,6.2,4.7,9.2l-10.1,0.1c-2.8,0.1-5,2.4-4.9,5.2
			c0,0.8,0.2,1.5,0.5,2.2h-2c-0.2-0.7-0.3-1.5-0.4-2.2C75.3,61,78.3,57.8,82.2,57.6z M66,59.5l-8.7-0.1c1.3-3,3.5-8.6,3.8-9.1v7.2
			l4.9,0c1.8,0,3.6,0.8,4.8,2.1c1.9,2,2.5,4.8,1.6,7.3h-2.1c0.4-0.7,0.6-1.5,0.6-2.3C71,61.8,68.8,59.6,66,59.5z M104.1,96.6H44.7
			V76.1h59.3V96.6z M106.3,73.8H42.4c-1.3,0-2.3-1-2.3-2.3c0-1.3,1-2.3,2.3-2.3h63.9c1.3,0,2.3,1,2.3,2.3c0,0,0,0,0,0
			C108.6,72.8,107.6,73.8,106.3,73.8C106.4,73.8,106.4,73.8,106.3,73.8z"/>
	</g>
</g>
</svg>
