<?xml version="1.0" encoding="utf-8"?>
<!-- Generator: Adobe Illustrator 23.0.0, SVG Export Plug-In . SVG Version: 6.00 Build 0)  -->
<svg version="1.1" id="Layer_1" xmlns="http://www.w3.org/2000/svg" xmlns:xlink="http://www.w3.org/1999/xlink" x="0px" y="0px"
	 viewBox="0 0 990 753.1" style="enable-background:new 0 0 990 753.1;" xml:space="preserve">
<style type="text/css">
	.st0{opacity:0.1;fill:#6C63FF;enable-background:new    ;}
	.st1{opacity:0.1;enable-background:new    ;}
	.st2{opacity:0.2;fill:#6C63FF;enable-background:new    ;}
	.st3{fill:#535461;}
	.st4{fill:#E0E0E0;}
	.st5{fill:#FDA57D;}
	.st6{fill:#4D8AF0;}
	.st7{fill:#72351C;}
	.st8{fill:#FDB797;}
	.st9{fill:#3AD29F;}
	.st10{fill:#6C63FF;}
	.st11{fill:#252A62;}
	.st12{opacity:0.7;}
	.st13{fill:url(#SVGID_1_);}
	.st14{fill:#3E3F49;}
</style>
<g>
	<path class="st0" d="M16,366.5h89.6v139.4h-83c-0.2,1.4-0.4,2.9-0.7,4.3h83.7v112.4c-0.1,0-0.3-0.1-0.4-0.2c-2.4-1.1-4.7-2.2-7-3.4
		l-1.5-0.8c-2.4-1.3-4.7-2.6-7-4c-0.8-0.5-1.6-1-2.4-1.5c-13.1-8.3-25-18.9-35.2-31.3c-0.3-0.3-0.6-0.7-0.9-1
		c-1.4-1.8-2.8-3.6-4.2-5.4l-1.5-2.1c-1.6-2.2-3.2-4.5-4.7-6.9c-0.2-0.3-0.4-0.7-0.7-1c-6.1-9.7-11.2-20.2-15.2-31.3
		c-0.1-0.3-0.2-0.7-0.4-1c-1.2-3.5-2.3-7.1-3.3-10.8c-0.4-1.5-0.8-3.1-1.1-4.6c-0.1-0.5-0.2-0.9-0.3-1.4c-5-22.3-5.5-45.5-5.5-68.6
		c0-2.7,0-5.4,0-8.1c0-9.3,0.1-18.7,0.2-28.1c0-2.4,0.1-4.8,0.1-7.3c0.1-6.2,0.3-12.4,0.5-18.6c0.1-1.7,0.1-3.4,0.2-5.1
		c0-1,0.1-2,0.1-3C15.6,373.6,15.8,370.1,16,366.5z"/>
	<path class="st0" d="M105.6,211.3H56.4c8-14.3,16.7-28,26.1-41.1c7.3-10.2,15-20.2,23-29.8L105.6,211.3z"/>
	<path class="st0" d="M105.6,215.6v146.6H16.3c0-0.4,0.1-0.9,0.1-1.3c0.1-1.1,0.2-2.3,0.2-3.5c0.1-1.3,0.2-2.7,0.3-4.1
		c0.1-1.4,0.2-2.9,0.4-4.4c0.1-1.5,0.3-2.9,0.4-4.4c0.1-1.5,0.3-2.9,0.4-4.4s0.3-2.9,0.5-4.4c0.1-1.2,0.3-2.4,0.4-3.6
		c0.2-1.7,0.4-3.4,0.6-5.1c0-0.3,0.1-0.5,0.1-0.8c1.6-12.4,3.8-24.7,6.6-36.8c2.9-12.7,6.6-25.2,11.1-37.3
		c4.8-12.7,10.3-24.9,16.7-36.6L105.6,215.6z"/>
	<path class="st0" d="M127,366.5v139.4h191.4V366.5H127z M127,510.2v119.8c1.1,0.3,2.2,0.5,3.3,0.7c1.5,0.3,2.9,0.6,4.4,0.9
		c0.3,0,0.6,0.1,0.9,0.1c0.6,0.1,1.2,0.2,1.8,0.3c1.5,0.2,2.9,0.4,4.4,0.6l2.1,0.2l1.7,0.1l0,0c0.9,0.1,1.8,0.1,2.8,0.2
		c0.6,0,1.1,0,1.7,0.1h1.3h1.7c0.8,0,1.5,0,2.3,0h1c0.8,0,1.5,0,2.3-0.1l0,0l0,0c0.5,0,1.1,0,1.6-0.1c0.1,0,0.3,0,0.4,0
		c0.4,0,0.9,0,1.3-0.1h0.3l2.9-0.3c1-0.1,1.9-0.2,2.9-0.3l2-0.3c8.2-1.3,16.3-3.3,24.2-5.9c17.9-5.7,35.3-13.6,53.2-19.5
		c23.2-7.6,48.7-11.2,71-2.1v-94.4H127z M318.4,211.3V25.8c-21-0.3-41.8,2.5-62.2,8.3c-48.5,13.9-92,44-129.2,82.5v94.7h9.6v4.3H127
		v146.6h191.4V215.6H176.1v-4.3L318.4,211.3z M564.2,148.6c-12-0.5-23.9-4.8-34.7-11.5c-20.6-12.8-37.1-32.6-55.5-49.2
		C435.8,53.2,388.4,32.2,339.8,27v184.3H613l0.7-0.8L564.2,148.6z M589.1,143.6l26.4,33.1v-41.7
		C606.6,136.1,598.9,139.1,589.1,143.6L589.1,143.6z M615.5,659.6V510.2h-56.2c-0.1-0.6-0.3-1.3-0.5-1.9c0.2,0.6,0.3,1.3,0.5,1.9
		H339.8v108.1c2.1,1.8,4.1,3.6,6.2,5.5l0,0c2.2,2,4.4,4.1,6.6,6.2l2.2,2.1c1.1,1,2.1,2,3.2,3c2.1,2,4.3,3.9,6.4,5.8
		c1.1,1,2.2,1.9,3.2,2.9c17.2,15,35.4,28.6,54.4,40.6c4.3,2.7,8.5,5.3,12.9,7.9c2.9,1.7,5.8,3.4,8.7,5c4.4,2.4,8.8,4.8,13.2,7.1l0,0
		c41,21,84.4,35.4,128.9,42.9c9.9,1.7,19.8,3,29.8,3.9V659.6h0.9H615.5z M339.8,215.6v146.6h275.7V215.6H339.8z M339.8,366.5v139.4
		h275.7V366.5H339.8z M636.9,134.7v46.6l33.7-42.2C659.4,137.1,648.2,135.6,636.9,134.7z M636.9,366.5v139.4h268.2V366.5H636.9z
		 M904.1,670.7l1-160.5H636.9v242.4c17.3,0.8,34.6,0.6,51.8-0.7l0,0h0.3c8.2-0.6,16.4-1.5,24.6-2.6h0.2
		c43.6-5.8,86.1-18.8,126.4-38.5 M956.8,389.5c-1-2.7-2.1-5.4-3.1-8.1c-1.9-5-4.1-9.9-6.3-14.8h-20.9v139.3h52.9
		c0-39.4-8.8-79.8-22.6-116.5L956.8,389.5z M926.5,510.3v138c14.9-16.3,27.5-34.9,36.6-56.3c10.9-25.7,15.9-53.5,16.3-81.8
		L926.5,510.3z M926.5,326v36.3h19c-5.7-12.5-12.1-24.7-19-36.4L926.5,326z M744.6,162c-1.4-0.6-2.8-1.2-4.2-1.8
		c-14.8-6.3-29.9-11.5-45.3-15.6l-51.5,64.5l0,0l-1,1.2l0.7,0.8h183.4C801.1,191.2,773.6,174.7,744.6,162z M832.1,215.6H640.7
		l-3.8,3.9v142.6h33l0,0l0,0h235.2v-69.1C883.8,263.7,859.3,237.7,832.1,215.6L832.1,215.6z"/>
	<path class="st0" d="M105.6,289.6v72.6H16.3c0-0.4,0.1-0.9,0.1-1.3c0.1-1.1,0.2-2.3,0.2-3.5c0.1-1.3,0.2-2.7,0.3-4.1
		c0.1-1.4,0.2-2.9,0.4-4.4c0.1-1.5,0.3-2.9,0.4-4.4c0.1-1.5,0.3-2.9,0.4-4.4s0.3-2.9,0.5-4.4c0.1-1.2,0.3-2.4,0.4-3.6
		c0.2-1.7,0.4-3.4,0.6-5.1c0-0.3,0.1-0.5,0.1-0.8c1.6-12.4,3.8-24.7,6.6-36.8L105.6,289.6z"/>
	<path class="st0" d="M16,366.5h89.6v139.4h-83c-0.2,1.4-0.4,2.9-0.7,4.3h83.7v112.4c-0.1,0-0.3-0.1-0.4-0.2c-2.4-1.1-4.7-2.2-7-3.4
		l-1.5-0.8c-2.4-1.3-4.7-2.6-7-4c-0.8-0.5-1.6-1-2.4-1.5c-13.1-8.3-25-18.9-35.2-31.3c-0.3-0.3-0.6-0.7-0.9-1
		c-1.4-1.8-2.8-3.6-4.2-5.4l-1.5-2.1c-1.6-2.2-3.2-4.5-4.7-6.9c-0.2-0.3-0.4-0.7-0.7-1c-6.1-9.7-11.2-20.2-15.2-31.3
		c-0.1-0.3-0.2-0.7-0.4-1c-1.2-3.5-2.3-7.1-3.3-10.8c-0.4-1.5-0.8-3.1-1.1-4.6c-0.1-0.5-0.2-0.9-0.3-1.4c-5-22.3-5.5-45.5-5.5-68.6
		c0-2.7,0-5.4,0-8.1c0-9.3,0.1-18.7,0.2-28.1c0-2.4,0.1-4.8,0.1-7.3c0.1-6.2,0.3-12.4,0.5-18.6c0.1-1.7,0.1-3.4,0.2-5.1
		c0-1,0.1-2,0.1-3C15.6,373.6,15.8,370.1,16,366.5z"/>
	<polygon class="st0" points="194.4,236.6 194.4,362.2 127,362.2 127,236.6 136.6,236.6 136.6,194.1 176,194.1 176,236.6 	"/>
	<rect x="127" y="366.5" class="st0" width="67.4" height="139.4"/>
	<path class="st0" d="M127,510.2h67.4v115.9c-7.9,2.6-16,4.6-24.2,5.9c-0.7,0.1-1.3,0.2-2,0.3c-1,0.1-1.9,0.2-2.9,0.3l-2.9,0.3H162
		c-0.4,0-0.9,0.1-1.3,0.1c-0.1,0-0.3,0-0.4,0c-0.5,0-1.1,0.1-1.6,0.1l0,0l0,0c-0.8,0-1.5,0.1-2.3,0.1h-1c-0.8,0-1.5,0-2.3,0h-1.7
		c-0.5,0-0.9,0-1.4,0c-0.4,0-1.1,0-1.7-0.1c-0.9,0-1.8-0.1-2.8-0.2l0,0l-1.7-0.1l-2.1-0.2c-1.5-0.2-2.9-0.4-4.4-0.6
		c-0.6-0.1-1.2-0.2-1.8-0.3c-0.3,0-0.6-0.1-0.9-0.1c-1.5-0.3-2.9-0.5-4.4-0.9c-1.1-0.2-2.2-0.5-3.3-0.7L127,510.2z"/>
	<rect x="560" y="221.8" class="st0" width="55.6" height="140.4"/>
	<polygon class="st0" points="615.5,366.5 615.5,505.9 339.8,505.9 339.8,445.8 486.7,445.8 486.7,481.2 560,481.2 560,366.5 	"/>
	<path class="st0" d="M616.4,659.6h-0.9v91.4c-10-1-19.9-2.3-29.8-3.9c-44.5-7.4-87.9-21.9-129-42.9c-11.9-6.1-23.5-12.7-34.8-19.9
		c-19-12-37.2-25.6-54.4-40.6c-4.3-3.8-8.6-7.7-12.8-11.6c-2.9-2.8-5.8-5.6-8.8-8.3c-2-1.9-4.1-3.7-6.2-5.6v-108h219.5
		c-0.2-0.6-0.3-1.3-0.5-1.9c0.2,0.6,0.3,1.3,0.5,1.9h56.3v149.4L616.4,659.6z"/>
	<path class="st0" d="M760.4,211.3h-36.2v-12.9h16.2v-38.2c1.4,0.6,2.8,1.2,4.2,1.8v36.4h15.8V211.3z"/>
	<path class="st0" d="M847.6,362.2H669.9h0.1h-0.1h-33V221.8h9.3v103.8h42.7v-61.4h35.3v-48.5h36.2v48.5h35.3v61.4h52V362.2z"/>
	<path class="st0" d="M636.9,366.5v139.4h210.7V366.5H636.9z M904.8,670l0.3-110.3h-57.5v-49.5H636.9v242.4
		c17.3,0.8,34.6,0.6,51.8-0.7l0,0h0.3c8.2-0.6,16.4-1.5,24.6-2.6h0.2c43.6-5.8,86.1-18.8,126.4-38.5"/>
	<path class="st0" d="M930.2,510.2h49.2c-0.4,28.3-5.4,56.1-16.3,81.8c-9.1,21.3-21.7,40-36.5,56.3v-88.6h3.7V510.2z"/>
	<path class="st0" d="M979.4,505.9h-49.2V389.4h26.6C970.6,426.1,979.4,466.5,979.4,505.9z"/>
	<rect x="585.8" y="260.8" class="st0" width="29.8" height="44"/>
	<rect x="585.8" y="352.1" class="st0" width="29.8" height="10.1"/>
	<rect x="585.8" y="366.5" class="st0" width="29.8" height="29.6"/>
	<rect x="585.8" y="443.3" class="st0" width="29.8" height="44"/>
	<rect x="585.8" y="534.5" class="st0" width="29.8" height="44"/>
	<path class="st0" d="M615.5,659.6l0.9,0.1L615.5,659.6v10.3h-29.8v-44.1h29.8V659.6z"/>
	<path class="st0" d="M615.5,717v34c-10-1-19.9-2.3-29.8-3.9v-30L615.5,717z"/>
	<rect x="339.8" y="502.6" class="st0" width="127.5" height="3.2"/>
	<rect x="339.8" y="510.2" class="st0" width="127.5" height="12.4"/>
	<rect x="339.8" y="563.2" class="st0" width="127.5" height="19.9"/>
	<path class="st0" d="M467.3,623.8v19.9h-99.8c-4.3-3.8-8.6-7.7-12.8-11.6c-2.9-2.7-5.8-5.6-8.8-8.3L467.3,623.8z"/>
	<path class="st0" d="M467.3,684.3v19.9h-10.5c-11.9-6.1-23.5-12.7-34.8-19.9H467.3z"/>
	<rect x="688.7" y="380" class="st0" width="25.1" height="28.6"/>
	<rect x="145.1" y="246.5" class="st0" width="25.1" height="28.6"/>
	<rect x="145.1" y="313" class="st0" width="25.1" height="28.6"/>
	<rect x="145.1" y="379.6" class="st0" width="25.1" height="28.6"/>
	<rect x="145.1" y="446.2" class="st0" width="25.1" height="28.6"/>
	<rect x="145.1" y="512.7" class="st0" width="25.1" height="28.6"/>
	<rect x="145.1" y="579.3" class="st0" width="25.1" height="28.6"/>
	<rect x="784.6" y="380" class="st0" width="25.1" height="28.6"/>
	<rect x="688.7" y="450.7" class="st0" width="25.1" height="28.6"/>
	<rect x="784.6" y="450.7" class="st0" width="25.1" height="28.6"/>
	<rect x="688.7" y="521.4" class="st0" width="25.1" height="28.6"/>
	<rect x="784.6" y="521.4" class="st0" width="25.1" height="28.6"/>
	<rect x="688.7" y="592" class="st0" width="25.1" height="28.6"/>
	<rect x="784.6" y="592" class="st0" width="25.1" height="28.6"/>
	<rect x="688.7" y="662.7" class="st0" width="25.1" height="28.6"/>
	<rect x="784.6" y="662.7" class="st0" width="25.1" height="28.6"/>
	<polygon class="st0" points="688.7,751.9 688.7,733.4 713.9,733.4 713.9,749.2 	"/>
	<path class="st0" d="M19.7,326.3v16.4h85.9v-16.4H19.7z M28.2,341.7h-7v-14.3h7V341.7z M36.8,341.7h-7v-14.3h7V341.7z M45.3,341.7
		h-7v-14.3h7L45.3,341.7z M53.9,341.7h-7v-14.3h7V341.7z M62.4,341.7h-7v-14.3h7V341.7z M71,341.7h-7v-14.3h7V341.7z M79.5,341.7h-7
		v-14.3h7V341.7z M88.1,341.7h-7v-14.3h7V341.7z M96.6,341.7h-7v-14.3h7V341.7z M105.2,341.7h-7.1v-14.3h7L105.2,341.7z"/>
	<path class="st0" d="M19.7,374.1v16.4h85.9v-16.4H19.7z M28.2,389.4h-7v-14.3h7V389.4z M36.8,389.4h-7v-14.3h7V389.4z M45.3,389.4
		h-7v-14.3h7L45.3,389.4z M53.9,389.4h-7v-14.3h7V389.4z M62.4,389.4h-7v-14.3h7V389.4z M71,389.4h-7v-14.3h7V389.4z M79.5,389.4h-7
		v-14.3h7V389.4z M88.1,389.4h-7v-14.3h7V389.4z M96.6,389.4h-7v-14.3h7V389.4z M105.2,389.4h-7.1v-14.3h7L105.2,389.4z"/>
	<path class="st0" d="M19.7,421.8v16.4h85.9v-16.4H19.7z M28.2,437.1h-7v-14.3h7V437.1z M36.8,437.1h-7v-14.3h7V437.1z M45.3,437.1
		h-7v-14.3h7L45.3,437.1z M53.9,437.1h-7v-14.3h7V437.1z M62.4,437.1h-7v-14.3h7V437.1z M71,437.1h-7v-14.3h7V437.1z M79.5,437.1h-7
		v-14.3h7V437.1z M88.1,437.1h-7v-14.3h7V437.1z M96.6,437.1h-7v-14.3h7V437.1z M105.2,437.1h-7.1v-14.3h7L105.2,437.1z"/>
	<path class="st0" d="M19.7,469.5v16.4h85.9v-16.4H19.7z M28.2,484.9h-7v-14.3h7V484.9z M36.8,484.9h-7v-14.3h7V484.9z M45.3,484.9
		h-7v-14.3h7L45.3,484.9z M53.9,484.9h-7v-14.3h7V484.9z M62.4,484.9h-7v-14.3h7V484.9z M71,484.9h-7v-14.3h7V484.9z M79.5,484.9h-7
		v-14.3h7V484.9z M88.1,484.9h-7v-14.3h7V484.9z M96.6,484.9h-7v-14.3h7V484.9z M105.2,484.9h-7.1v-14.3h7L105.2,484.9z"/>
	<path class="st0" d="M20,517.2c0.3,1.5,0.7,3.1,1.1,4.6v-3.6h7v14.3h-3.8c0.1,0.3,0.2,0.7,0.3,1h80.8v-16.4H20z M36.8,532.6h-7
		v-14.3h7V532.6z M45.3,532.6h-7v-14.3h7V532.6z M53.9,532.6h-7v-14.3h7V532.6z M62.4,532.6h-7v-14.3h7V532.6z M71,532.6h-7v-14.3h7
		V532.6z M79.5,532.6h-7v-14.3h7V532.6z M88.1,532.6h-7v-14.3h7V532.6z M96.6,532.6h-7v-14.3h7V532.6z M105.2,532.6h-7.1v-14.3h7
		L105.2,532.6z"/>
	<path class="st0" d="M40,564.9c0.2,0.3,0.4,0.7,0.7,1h4.7v6.9l1.5,2.1V566h7v14.3H51c0.3,0.3,0.6,0.7,0.9,1h53.7v-16.4H40z
		 M62.4,580.3h-7V566h7V580.3z M71,580.3h-7V566h7V580.3z M79.5,580.3h-7V566h7V580.3z M88.1,580.3h-7V566h7V580.3z M96.6,580.3h-7
		V566h7V580.3z M105.2,580.3h-7V566h7L105.2,580.3z"/>
	<path class="st0" d="M87.1,612.6c0.8,0.5,1.6,1,2.5,1.5v-0.5h7v4.5l1.5,0.8v-5.3h7v8.7c0.1,0.1,0.3,0.1,0.4,0.2v-9.9L87.1,612.6z"
		/>
	<path class="st0" d="M669.9,362.2L669.9,362.2L669.9,362.2z M615.5,659.6L615.5,659.6h0.9H615.5z M558.8,508.3
		c0.2,0.6,0.3,1.3,0.5,1.9l0,0C559.1,509.5,558.9,508.9,558.8,508.3L558.8,508.3z M669.9,362.2L669.9,362.2L669.9,362.2z
		 M136.6,211.3v4.3h39.5v-4.3H136.6z M615.5,659.5L615.5,659.5h0.9H615.5z M558.8,508.3c0.2,0.6,0.3,1.3,0.5,1.9l0,0
		C559.1,509.5,558.9,508.9,558.8,508.3L558.8,508.3z M669.9,362.2L669.9,362.2L669.9,362.2z M615.5,659.6L615.5,659.6h0.9H615.5z
		 M558.8,508.3c0.2,0.6,0.3,1.3,0.5,1.9l0,0C559.1,509.5,558.9,508.9,558.8,508.3L558.8,508.3z"/>
	<path class="st1" d="M565.4,448.1c-0.1,0.3-0.2,0.7-0.4,1l-0.1,0.2c-0.3,0.5-0.6,1.1-0.9,1.7c-0.3,0-0.5,0-0.8,0.1l1.1-2.7
		C564.7,448.3,565,448.2,565.4,448.1z"/>
</g>
<title>co-workers</title>
<g>
	<polygon class="st0" points="584.6,374.2 584.6,499.5 301.7,499.5 301.7,445.4 452.4,445.4 452.4,477.3 527.6,477.3 527.6,374.2 	
		"/>
	<path class="st0" d="M585.5,637.7h-0.9V720c-10.2-0.9-20.4-2-30.5-3.5c-45.7-6.7-90.2-19.7-132.3-38.6
		c-12.2-5.5-24.1-11.5-35.7-17.9c-19.5-10.8-38.1-23-55.8-36.5c-4.4-3.4-8.8-6.9-13.2-10.5c-3-2.5-6-5-9-7.5c-2.1-1.7-4.2-3.4-6.3-5
		v-97.1h225.2c-0.2-0.6-0.3-1.1-0.5-1.7c0.2,0.6,0.3,1.2,0.5,1.7h57.8v134.3L585.5,637.7z"/>
	<rect x="301.7" y="496.6" class="st0" width="130.9" height="2.9"/>
	<rect x="301.7" y="503.4" class="st0" width="130.9" height="11.1"/>
	<rect x="301.7" y="551" class="st0" width="130.9" height="17.9"/>
	<path class="st0" d="M432.6,605.5v17.9H330.2c-4.4-3.4-8.8-6.9-13.2-10.5c-3-2.5-6-5-9-7.5L432.6,605.5z"/>
	<path class="st0" d="M432.6,659.9v17.9h-10.8c-12.2-5.5-24.1-11.5-35.7-17.9H432.6z"/>
	<path class="st2" d="M818,668h-71v-40h71V668z M750,665h65v-34h-65V665z"/>
	<path class="st2" d="M302,668h-71v-40h71V668z M234,665h65v-34h-65V665z"/>
	<path class="st3" d="M364.3,606.1c0,0-83.2-30.8-94.6,12.5l31.9,82l3.4,52.5h69.5v-44.5c0,0-10.2-44.4,16-71.8L364.3,606.1z"/>
	<path class="st1" d="M378.2,362c-3.5-1.2-7.8-2.2-10.7,0.1c-1.7,1.4-2.4,3.6-3.7,5.3c-4.3,5.7-13,4.7-19.9,6.7
		c-10.1,3-16.3,13.1-19.9,23c-15.8,43.7,1.8,93.7-11.9,138.1c-4,13.1-10.7,27.6-4.1,39.6c2.2,4,5.7,7.3,6.8,11.8
		c1.5,6-1.4,13.9,3.6,17.6c1.5,1.1,3.5,1.5,5.4,2c11.2,3,19.7,11.8,28.2,19.7s18.8,15.4,30.4,14.9c3.7-0.3,7.4-1.1,11-2.2l57.5-16.2
		c5.8-1.6,12-3.6,15.4-8.6c2-3,2.7-6.8,3.2-10.4c2-13.8,2.9-27.7,2.8-41.7c0-4.6-0.2-9.3-1.9-13.6c-2-4.9-5.8-8.9-8.6-13.4
		c-5.4-8.7-6.8-19.2-8.2-29.4c-2.1-16.2-4.2-32.7-1.3-48.8c1.3-6.9,3.4-13.6,4.9-20.4c2.3-11.2,2.7-22.6,1.1-33.9
		c-1.3-9.4-4.2-18.9-10.5-25.9c-4.1-4.7-9.8-7.8-15.9-8.7c-7.8-1-11.7,3.6-18.6,5.2C403.1,375.2,388.1,365.3,378.2,362z"/>
	<path class="st4" d="M378.2,359.7c-3.5-1.2-7.8-2.2-10.7,0.1c-1.7,1.4-2.4,3.6-3.7,5.3c-4.3,5.7-13,4.7-19.9,6.7
		c-10.1,3-16.3,13.1-19.9,23c-15.8,43.7,1.8,93.7-11.9,138.1c-4,13.1-10.7,27.6-4.1,39.6c2.2,4,5.7,7.3,6.8,11.8
		c1.5,6-1.4,13.9,3.6,17.6c1.5,1.1,3.5,1.5,5.4,2c11.2,3,19.7,11.8,28.2,19.7s18.8,15.4,30.4,14.9c3.7-0.3,7.4-1.1,11-2.2L451,620
		c5.8-1.6,12-3.6,15.4-8.6c2-3,2.7-6.8,3.2-10.4c2-13.8,2.9-27.7,2.8-41.7c0-4.6-0.2-9.3-1.9-13.6c-2-4.9-5.8-8.9-8.6-13.4
		c-5.4-8.7-6.8-19.2-8.2-29.4c-2.1-16.2-4.2-32.7-1.3-48.8c1.3-6.9,3.4-13.6,4.9-20.4c2.3-11.2,2.7-22.6,1.1-33.9
		c-1.3-9.4-4.2-18.9-10.5-25.9c-4.1-4.7-9.7-7.8-15.9-8.8c-7.8-1-11.7,3.6-18.6,5.2C403.1,372.9,388.1,363,378.2,359.7z"/>
	<path class="st5" d="M362,273.4c0,0,1.1,43.3-12.5,42.1s38.7,71.8,38.7,71.8l44.4-23.9c0,0-26.2-42.2-8-68.4S362,273.4,362,273.4z"
		/>
	<path class="st1" d="M285.7,641.4c0,0-9.1,62.7-31.9,45.6s-19.4-45.6-19.4-45.6s44.4-120.8,42.1-139s75.9-160,75.9-160l28.9,232.9
		C381.4,575.3,294.8,607.3,285.7,641.4z"/>
	<path class="st6" d="M283.4,641.4c0,0-9.1,62.7-31.9,45.6s-19.4-45.6-19.4-45.6s44.4-120.8,42.1-139s75.9-160,75.9-160l28.9,232.9
		C379.1,575.3,292.5,607.3,283.4,641.4z"/>
	<path class="st6" d="M364.3,300.8c0,0-44.4,30.8-61.5,29.6l-13.3,3.6c-26.9,7.4-47.3,29.4-52.6,56.8l-0.2,1.1
		c-6.8,36.5-9.1,136.7-9.1,136.7s1.1,26.2,12.5,33l72.9,50.2c0,0-2.3-54.7,25.1-60.4s-6.8-2.3-6.8-2.3l-50.1-29.6
		c0,0,1.1-44.4,14.8-59.2s61.5-92.3,61.5-92.3l-13.7-47.9L364.3,300.8z"/>
	<path class="st1" d="M413.3,330.4c0,0,28,7.4,47.6,11c6.2,1.1,11.5,5.2,14.2,10.9c5.9,12.4,14.9,34.7,13.4,53.3l17.1,67.2l49,59.2
		l-44.4,20.5L460,496.8l41,106l-76.3,3.4c0,0-22.8-170.9-17.1-199.4L413.3,330.4z"/>
	<path class="st6" d="M415.5,330.4c0,0,28,7.4,47.6,11c6.2,1.1,11.5,5.2,14.2,10.9c5.9,12.4,14.9,34.7,13.4,53.3l17.1,67.2l49,59.2
		l-44.4,20.5l-50.1-55.8l41,106l-76.3,3.4c0,0-22.8-170.9-17.1-199.4L415.5,330.4z"/>
	<polygon class="st4" points="360.5,297.2 376.2,374.3 350.6,387.4 336.6,317.9 	"/>
	<polygon class="st4" points="403.6,380 415.5,330.4 430.9,359.5 423,383.4 	"/>
	<path class="st1" d="M446.9,394.8c0,0,0,77.5,10.2,83.2"/>
	<path class="st1" d="M299.9,414.1c0,0-23.6,76.3-17,84.3"/>
	<path class="st1" d="M295.3,519c0,0,45.6,29.8,51.8,30.3"/>
	<path class="st1" d="M363.1,278c0,0,0.2,6.7-0.4,14.7c9.4,22.3,32.8,35.2,56.7,31.3c-0.3-8.5,1.3-17.1,6.4-24.4
		C444,273.4,363.1,278,363.1,278z"/>
	<circle class="st5" cx="409.8" cy="267.8" r="52.4"/>
	<path class="st1" d="M443.1,245.7c6.3,0.9,14.4-1.3,15.7-7.5c1.5-8-9.1-13.1-10.7-21c-0.6-3,0.1-6.1-0.2-9.1
		c-0.7-6.1-5.6-10.8-10.6-14.3c-15.8-11.1-35.1-16.2-54.4-14.5c-2.4,0.2-4.9,0.6-6.7,2.1c-2.1,1.7-2.9,4.5-4.3,6.8
		c-4.9,7.9-16,8.9-23.9,13.8c-9.3,5.8-13.9,17.2-14.3,28.1s2.7,21.6,5.8,32.1c2.6,8.9,5.4,18.1,11.1,25.4s15.3,12.4,24.3,10.2
		c-4.1-3-1.1-9.9,3.4-12.3s10-2.8,13.9-6.2c3.9-3.4,5-8.8,6.2-13.8c1.6-6.3,3.9-12.7,8.5-17.3C415.8,239.1,432,244.2,443.1,245.7z"
		/>
	<path class="st7" d="M442,244.6c6.3,0.9,14.4-1.3,15.7-7.5c1.5-8-9.1-13.1-10.7-21c-0.6-3,0.1-6.1-0.2-9.1
		c-0.8-6.1-5.7-10.8-10.7-14.3c-15.8-11.1-35.1-16.2-54.3-14.5c-2.4,0.2-4.9,0.6-6.7,2.1c-2.1,1.7-2.9,4.5-4.3,6.8
		c-4.9,7.9-16,8.9-23.9,13.8c-9.3,5.8-13.9,17.2-14.3,28.1s2.7,21.6,5.8,32.1c2.6,8.9,5.4,18.1,11.1,25.4s15.3,12.4,24.3,10.2
		c-4.1-3-1.1-9.9,3.4-12.3s10-2.8,13.9-6.2c3.9-3.4,5-8.8,6.2-13.8c1.6-6.3,3.9-12.7,8.5-17.3C414.6,238,430.9,243.1,442,244.6z"/>
	<path class="st1" d="M400.8,274.8c-0.8,5.4-2.5,14.8-5.7,20.7c-4.3,7.7-7.9,15.7-10.9,24l0,0c0,0,21,16.2,31.6,27.4
		c6.7,7.1,16.9,9.6,26.1,6.4c5.6-2,10.4-5.9,11.7-13.2c2-11.5-0.4-20.3-2.7-25.4c-2.2-4.9-2.2-10.6,0-15.5c0.8-1.8,1.7-3.1,2.7-3.5
		c0,0-20.5-4.6-21.7,1.1s-17.1,11.4-20.5,1.1l-0.9-22.6c-0.1-2.6-2.3-4.7-4.9-4.7l0,0C403.2,270.6,401.1,272.4,400.8,274.8z"/>
	<path class="st7" d="M400.8,276c-0.8,5.4-2.5,14.8-5.7,20.7c-4.3,7.7-7.9,15.7-10.9,24l0,0c0,0,21,16.2,31.6,27.4
		c6.7,7.1,16.9,9.6,26.1,6.4c5.6-2,10.4-5.9,11.7-13.2c2-11.5-0.4-20.3-2.7-25.4c-2.2-4.9-2.3-10.6-0.1-15.6
		c0.8-1.8,1.7-3.1,2.7-3.5c0,0-20.5-4.6-21.7,1.1s-17.1,11.4-20.5,1.2l-0.9-22.6c-0.1-2.6-2.3-4.7-4.9-4.7l0,0
		C403.2,271.8,401.1,273.5,400.8,276z"/>
	<path class="st8" d="M634.9,417c0,0-2.3,80.9-4.6,91.2s-35.3,41-52.4,42.1c0,0-18.2,43.3-38.7,36.5s-22.8-43.3-12.5-47.8l68.4-43.3
		V409L634.9,417z"/>
	<path class="st9" d="M633.2,516.1c0,0-29.6,63.8-26.2,74.1s193.7,0,193.7,0s-35.3-35.3-28.5-74.1H633.2z"/>
	<path class="st8" d="M655.9,327c0,0,4.6,44.4-3.4,54.7s31.9,16,35.3,16s39.9-12.5,46.7-16c6.8-3.5,12.5-28.5,12.5-28.5
		s-34.2,6.8-44.4-33L655.9,327z"/>
	<path class="st10" d="M644,213c-8.6,3.1-16.6,9.1-20.3,17.5c-1.3,2.9-2,6.1-3.9,8.7c-4.2,5.8-12.2,6.9-18,11
		c-7.4,5.4-10.1,15.4-9.1,24.5c1,9.1,5.2,17.5,9.3,25.6c4.3,8.6,8.8,17.4,15.8,23.8c3.3,3,7.3,5.8,8.4,10.2
		c0.9,3.7-0.7,7.6-0.4,11.5c0.8,9.5,12.1,13.9,21.6,14.9c4.1,0.5,8.8,0.5,11.7-2.5c1.5-1.5,2.2-3.6,3.2-5.5
		c6.4-13,22.2-18.3,35.2-11.9c5,2.5,9.1,6.5,11.7,11.4c2.2,4.3,3.5,9.4,7.5,12c6.2,4,14.4-0.7,19-6.5c4.6-5.8,7.8-13,14.3-16.5
		c2-1.1,4.4-1.8,5.8-3.7c2.5-3.4,0.4-8.4,2.1-12.2c1.3-2.9,4.4-4.4,6.2-7c3.8-5.2,1-12.5-1.8-18.2l-16.3-33.6
		c-4.5-9.3-9.1-18.7-15.4-26.9C711.4,214.6,674.3,202.1,644,213z"/>
	<path class="st1" d="M685.6,389.7c0,0,44.4,0,55.8-41l37.4,29c5.2,4,8.5,10.1,9.2,16.6l3.5,35.3c0,0,4,13.1-0.6,21.1
		c0,0-47.3-12-48.4,1.7l33,92.3c0,0-51.3,1.1-64.9-8c0,0-55.8,11.4-69.5-1.1s-27.3-11.4-16-39.9c0,0-22.8-22.8-12.5-54.7
		s0.6,0.6,0.6,0.6s-22.1-10.8-21-31.4l2.3-20.5c0,0,0.1-0.7,0.4-1.9c7-27,25.6-42,51.8-32.4c7.7,2.8,15.5-0.4,15.5-0.4
		S653.7,391.9,685.6,389.7z"/>
	<path class="st11" d="M685.6,387.4c0,0,44.4,0,55.8-41l37.4,29c5.2,4,8.5,10.1,9.2,16.6l3.5,35.3c0,0,4,13.1-0.6,21.1
		c0,0-47.3-12-48.4,1.7l33,92.3c0,0-51.3,1.1-64.9-8c0,0-55.8,11.4-69.5-1.1s-27.3-11.4-16-39.9c0,0-22.8-22.8-12.5-54.7
		s0.6,0.6,0.6,0.6s-22.1-10.8-21-31.3l2.3-20.5c0,0,0.1-0.7,0.4-1.9c7-27,25.6-42,51.8-32.4c7.7,2.8,15.5-0.4,15.5-0.4
		S653.7,389.7,685.6,387.4z"/>
	<path class="st8" d="M791,426.1c0,0-2.3,80.9-4.6,91.2s-35.3,41-52.4,42.2c0,0-18.2,43.3-38.7,36.5s-22.8-43.3-12.5-47.8l68.4-43.3
		v-86.6L791,426.1z"/>
	<path class="st1" d="M742,429c0,0,26.2,17.8,49,16.3c0,0,2.3-30.5-4.6-32.2C779.6,411.3,749.9,413,742,429z"/>
	<path class="st11" d="M742,427.8c0,0,26.2,17.8,49,16.3c0,0,2.3-30.5-4.6-32.2C779.6,410.2,749.9,411.9,742,427.8z"/>
	<path class="st1" d="M704.9,322.4l-46.7,6.8c0,0,1,10.3,1.3,22.1c18.5,7.8,39.9,4.3,55-8.9C710.5,337.6,707.2,331.1,704.9,322.4z"
		/>
	<circle class="st8" cx="677.6" cy="300.8" r="52.4"/>
	<path class="st1" d="M691.4,290.7c-2.2,0.8-4.6,1.2-7,1c-9.3-0.1-18.5-0.4-27.8-1c-7-0.5-14.5-1.3-19.9-5.8c-7.3-6-8.4-17.4-4.7-26
		c3.8-8.7,11.4-15.1,19.5-20c4.6-2.9,9.5-5.1,14.7-6.6c15-4.1,31.6,0.9,43.6,10.9s19.5,24.4,23.6,39.5c1.4,5.2,3.2,11.4,8.3,13
		c-3.4,5.7-11.8,6.6-17.8,3.8c-8.9-4.2-13.4-20.3-21.3-22.9C693.7,273.7,698.9,287.3,691.4,290.7z"/>
	<path class="st10" d="M691.4,289.6c-2.2,0.8-4.6,1.2-7,1c-9.3-0.1-18.5-0.4-27.8-1c-7-0.5-14.5-1.3-19.9-5.8
		c-7.3-6-8.4-17.4-4.7-26c3.8-8.7,11.4-15.1,19.5-20c4.6-2.9,9.5-5.1,14.7-6.6c15-4.1,31.6,0.9,43.6,10.9s19.5,24.4,23.6,39.5
		c1.4,5.2,3.2,11.4,8.3,13c-3.4,5.7-11.8,6.6-17.8,3.8c-8.9-4.2-13.4-20.3-21.3-22.9C693.7,272.5,698.9,286.1,691.4,289.6z"/>
	<path class="st1" d="M624.6,492.8c17.1-4.6,34.7-6.9,52.4-6.8"/>
	<path class="st1" d="M742,431.2c0,0-17.1,12.5-12.5,19.4"/>
	<rect x="337.5" y="583.9" class="st4" width="485.3" height="169.2"/>
	<rect x="337.5" y="593" class="st1" width="485.3" height="27.3"/>
	<rect x="305.6" y="564.5" class="st4" width="548" height="46.7"/>
	<path class="st3" d="M390.6,553h91.8c3.6,0,6.5,2.9,6.5,6.5v1.8c0,3.6-2.9,6.5-6.5,6.5h-91.8c-3.6,0-6.5-2.9-6.5-6.5v-1.8
		C384.1,556,387.1,553,390.6,553z"/>
	<g class="st12">
		
			<linearGradient id="SVGID_1_" gradientUnits="userSpaceOnUse" x1="578.2" y1="191.96" x2="578.2" y2="372.09" gradientTransform="matrix(1 0 0 -1 0 760)">
			<stop  offset="0" style="stop-color:#808080;stop-opacity:0.25"/>
			<stop  offset="0.54" style="stop-color:#808080;stop-opacity:0.12"/>
			<stop  offset="1" style="stop-color:#808080;stop-opacity:0.1"/>
		</linearGradient>
		<path class="st13" d="M476.2,387.9h204.1c15.6,0,28.2,12.6,28.2,28.2v123.7c0,15.6-12.6,28.2-28.2,28.2H476.2
			c-15.6,0-28.2-12.6-28.2-28.2V416.1C447.9,400.5,460.6,387.9,476.2,387.9z"/>
	</g>
	<path class="st14" d="M479.4,391.2h193.1c14.8,0,26.8,12,26.8,26.8v123.1c0,14.8-12,26.8-26.8,26.8H479.4
		c-14.8,0-26.8-12-26.8-26.8V418.1C452.6,403.2,464.6,391.2,479.4,391.2z"/>
	<path class="st3" d="M482.8,391.2h193.1c14.8,0,26.8,12,26.8,26.8v123.1c0,14.8-12,26.8-26.8,26.8H482.8c-14.8,0-26.8-12-26.8-26.8
		V418.1C456,403.2,468,391.2,482.8,391.2z"/>
	<circle class="st4" cx="590.9" cy="478.4" r="8"/>
	<path class="st1" d="M264.6,587.3c0,0,6.7,9.9,26.7,12.9"/>
</g>
</svg>
