<?xml version="1.0" encoding="utf-8"?>
<!-- Generator: Adobe Illustrator 23.0.0, SVG Export Plug-In . SVG Version: 6.00 Build 0)  -->
<svg version="1.1" id="ff89978a-9cc6-4db0-9bd2-e66489869078"
	 xmlns="http://www.w3.org/2000/svg" xmlns:xlink="http://www.w3.org/1999/xlink" x="0px" y="0px" viewBox="0 0 1048.7 812.5"
	 style="enable-background:new 0 0 1048.7 812.5;" xml:space="preserve">
<style type="text/css">
	.st0{opacity:0.1;fill:#6C63FF;enable-background:new    ;}
	.st1{opacity:0.1;enable-background:new    ;}
</style>
<title>designer life</title>
<ellipse class="st0" cx="757.5" cy="808.7" rx="34.6" ry="3.8"/>
<path class="st0" d="M60.1,306.4H152v125.3H66.8c-0.2,1.3-0.4,2.6-0.7,3.9H152v101.1c-0.1,0-0.3-0.1-0.4-0.2c-2.4-1-4.9-2-7.2-3
	l-1.6-0.7c-2.4-1.1-4.9-2.3-7.2-3.6c-0.8-0.4-1.7-0.9-2.5-1.4c-13.4-7.5-25.6-17-36.2-28.2c-0.3-0.3-0.6-0.6-0.9-0.9
	c-1.5-1.6-2.9-3.2-4.3-4.8l-1.6-1.8c-1.6-2-3.2-4.1-4.8-6.2c-0.2-0.3-0.4-0.6-0.7-0.9c-6.3-8.7-11.5-18.2-15.6-28.2
	c-0.1-0.3-0.2-0.6-0.4-0.9c-1.3-3.2-2.4-6.4-3.4-9.7c-0.4-1.4-0.8-2.8-1.2-4.1c-0.1-0.4-0.2-0.8-0.3-1.2
	c-5.1-20.1-5.7-40.9-5.7-61.7c0-2.4,0-4.8,0-7.2c0-8.4,0.1-16.8,0.2-25.2c0.1-2.2,0.1-4.4,0.1-6.5c0.1-5.6,0.3-11.1,0.5-16.7
	c0.1-1.5,0.1-3.1,0.2-4.6c0-0.9,0.1-1.8,0.1-2.7C59.7,312.8,59.9,309.6,60.1,306.4z"/>
<path class="st0" d="M152,166.9h-50.4c8.2-12.8,17.2-25.2,26.8-36.9c7.5-9.2,15.4-18.2,23.6-26.8L152,166.9z"/>
<path class="st0" d="M152,170.7v131.8H60.3c0-0.4,0.1-0.8,0.1-1.2c0.1-1,0.2-2.1,0.2-3.1c0.1-1.2,0.2-2.4,0.3-3.7s0.2-2.6,0.4-4
	s0.3-2.6,0.4-4s0.3-2.6,0.4-3.9s0.3-2.6,0.5-3.9c0.1-1.1,0.3-2.2,0.4-3.3c0.2-1.5,0.4-3.1,0.7-4.6c0-0.2,0.1-0.5,0.1-0.7
	c1.7-11.1,3.9-22.2,6.8-33.1c3-11.4,6.8-22.6,11.4-33.5c4.9-11.4,10.6-22.4,17.1-32.9L152,170.7z"/>
<path class="st0" d="M174,306.4v125.3h196.4V306.4H174z M174,435.6v107.7c1.1,0.2,2.2,0.5,3.3,0.7c1.5,0.3,3,0.5,4.5,0.8
	c0.3,0,0.6,0.1,0.9,0.1c0.6,0.1,1.2,0.2,1.8,0.3c1.5,0.2,3,0.4,4.5,0.5l2.2,0.2l1.8,0.1l0,0c1,0.1,1.9,0.1,2.8,0.2
	c0.6,0,1.2,0,1.8,0.1h1.4h1.7c0.8,0,1.6,0,2.3,0h1c0.8,0,1.6,0,2.3-0.1l0,0l0,0c0.5,0,1.1,0,1.6-0.1c0.2,0,0.3,0,0.5,0
	c0.5,0,0.9,0,1.3-0.1h0.3l3-0.2c1-0.1,2-0.2,3-0.3l2.1-0.2c8.4-1.2,16.7-2.9,24.9-5.3c18.3-5.1,36.2-12.3,54.5-17.5
	c23.8-6.8,50-10.1,72.8-1.9v-84.9H174z M370.3,166.9V0c-21.5-0.2-42.9,2.3-63.8,7.5C256.8,20,212.2,47.1,174,81.7v85.2h9.8v3.9h-9.9
	v131.8h196.4V170.7h-146v-3.9L370.3,166.9z M622.6,110.5c-12.3-0.4-24.5-4.3-35.6-10.4c-21.2-11.5-38.1-29.3-56.9-44.3
	C490.9,24.7,442.2,5.8,392.3,1.1v165.7h280.3l0.7-0.7L622.6,110.5z M648.2,105.9l27.1,29.7V98.1C666.2,99.3,658.2,102,648.2,105.9
	L648.2,105.9z M675.2,569.9V435.6h-57.7c-0.2-0.6-0.3-1.1-0.5-1.7c0.2,0.6,0.3,1.2,0.5,1.7H392.3v97.2c2.1,1.6,4.2,3.3,6.3,5l0,0
	c2.3,1.8,4.5,3.7,6.7,5.6l2.2,1.9c1.1,0.9,2.2,1.8,3.3,2.7c2.2,1.8,4.4,3.5,6.6,5.2c1.1,0.9,2.2,1.7,3.3,2.6
	c17.7,13.5,36.4,25.7,55.8,36.5c4.4,2.4,8.8,4.8,13.2,7.1c3,1.5,5.9,3,8.9,4.5c4.5,2.2,9,4.3,13.6,6.4l0,0
	c42.1,18.9,86.6,31.9,132.3,38.5c10.1,1.5,20.3,2.7,30.5,3.5V569.9h0.9H675.2z M392.3,170.7v131.8h282.9V170.7H392.3z M392.3,306.4
	v125.3h282.9V306.4H392.3z M697.2,98v41.9l34.6-37.9C720.3,100.1,708.8,98.8,697.2,98z M697.2,306.4v125.3h275.2V306.4H697.2z
	 M971.4,579.9l1-144.3H697.2v218c17.7,0.7,35.5,0.5,53.2-0.6l0,0h0.3c8.4-0.5,16.9-1.3,25.2-2.3h0.2c44.7-5.2,88.4-16.9,129.7-34.6
	 M1025.5,327.1c-1-2.4-2.1-4.9-3.2-7.3c-2-4.5-4.2-8.9-6.4-13.3h-21.5v125.2h54.3C1048.6,396.3,1039.6,360,1025.5,327.1
	L1025.5,327.1z M994.4,435.7v124c15.3-14.7,28.2-31.4,37.5-50.6c11.2-23.1,16.3-48.1,16.7-73.5L994.4,435.7z M994.4,270v32.6h19.5
	C1007.9,291.4,1001.4,280.4,994.4,270L994.4,270z M807.8,122.6c-1.4-0.6-2.9-1.1-4.3-1.6c-15.2-5.6-30.7-10.3-46.5-14l-52.9,58l0,0
	l-1,1.1l0.7,0.7H892C865.7,148.8,837.5,133.9,807.8,122.6z M897.5,170.7H701.1l-3.9,3.5v128.2h33.8l0,0l0,0h241.3v-62.1
	C950.6,214,925.4,190.6,897.5,170.7L897.5,170.7z"/>
<path class="st0" d="M152,237.2v65.3H60.3c0-0.4,0.1-0.8,0.1-1.2c0.1-1,0.2-2.1,0.2-3.1c0.1-1.2,0.2-2.4,0.3-3.7s0.2-2.6,0.4-4
	s0.3-2.6,0.4-4s0.3-2.6,0.4-3.9s0.3-2.6,0.5-3.9c0.1-1.1,0.3-2.2,0.4-3.3c0.2-1.5,0.4-3.1,0.7-4.6c0-0.2,0.1-0.5,0.1-0.7
	c1.7-11.1,3.9-22.2,6.8-33.1L152,237.2z"/>
<path class="st0" d="M60.1,306.4H152v125.3H66.8c-0.2,1.3-0.4,2.6-0.7,3.9H152v101.1c-0.1,0-0.3-0.1-0.4-0.2c-2.4-1-4.9-2-7.2-3
	l-1.6-0.7c-2.4-1.1-4.9-2.3-7.2-3.6c-0.8-0.4-1.7-0.9-2.5-1.4c-13.4-7.5-25.6-17-36.2-28.2c-0.3-0.3-0.6-0.6-0.9-0.9
	c-1.5-1.6-2.9-3.2-4.3-4.8l-1.6-1.8c-1.6-2-3.2-4.1-4.8-6.2c-0.2-0.3-0.4-0.6-0.7-0.9c-6.3-8.7-11.5-18.2-15.6-28.2
	c-0.1-0.3-0.2-0.6-0.4-0.9c-1.3-3.2-2.4-6.4-3.4-9.7c-0.4-1.4-0.8-2.8-1.2-4.1c-0.1-0.4-0.2-0.8-0.3-1.2
	c-5.1-20.1-5.7-40.9-5.7-61.7c0-2.4,0-4.8,0-7.2c0-8.4,0.1-16.8,0.2-25.2c0.1-2.2,0.1-4.4,0.1-6.5c0.1-5.6,0.3-11.1,0.5-16.7
	c0.1-1.5,0.1-3.1,0.2-4.6c0-0.9,0.1-1.8,0.1-2.7C59.7,312.8,59.9,309.6,60.1,306.4z"/>
<polygon class="st0" points="243.1,189.6 243.1,302.5 174,302.5 174,189.6 183.8,189.6 183.8,151.4 224.3,151.4 224.3,189.6 "/>
<rect x="174" y="306.4" class="st0" width="69.1" height="125.3"/>
<path class="st0" d="M174,435.6h69.1v104.2c-8.2,2.3-16.5,4.1-24.9,5.3c-0.7,0.1-1.4,0.2-2.1,0.3c-1,0.1-2,0.2-3,0.3l-3,0.2h-0.3
	c-0.4,0-0.9,0-1.3,0.1c-0.2,0-0.3,0-0.5,0c-0.5,0-1.1,0.1-1.6,0.1l0,0l0,0c-0.8,0-1.5,0-2.3,0.1h-1c-0.8,0-1.5,0-2.3,0h-1.7
	c-0.5,0-0.9,0-1.4,0s-1.2,0-1.8-0.1c-0.9,0-1.9-0.1-2.8-0.2l0,0l-1.7-0.1l-2.2-0.2c-1.5-0.1-3-0.3-4.5-0.5c-0.6-0.1-1.2-0.2-1.8-0.3
	c-0.3,0-0.6-0.1-0.9-0.1c-1.5-0.2-3-0.5-4.5-0.8c-1.1-0.2-2.2-0.4-3.4-0.7L174,435.6z"/>
<rect x="618.3" y="176.3" class="st0" width="57" height="126.3"/>
<polygon class="st0" points="675.3,306.4 675.3,431.7 392.3,431.7 392.3,377.7 543,377.7 543,409.5 618.3,409.5 618.3,306.4 "/>
<path class="st0" d="M676.2,570h-0.9v82.2c-10.2-0.9-20.4-2-30.5-3.5C599,642,554.5,629,512.4,610.1c-12.2-5.5-24.1-11.5-35.7-17.9
	c-19.5-10.8-38.1-23-55.8-36.5c-4.4-3.4-8.8-6.9-13.2-10.5c-3-2.5-6-5-9-7.5c-2.1-1.7-4.2-3.4-6.3-5v-97.1h225.2
	c-0.2-0.6-0.3-1.1-0.5-1.7c0.2,0.6,0.3,1.2,0.5,1.7h57.8v134.3L676.2,570z"/>
<path class="st0" d="M823.9,166.9h-37.1v-11.6h16.6v-34.3c1.4,0.5,2.9,1.1,4.3,1.6v32.7h16.2V166.9z"/>
<path class="st0" d="M913.4,302.5H731.1h0.1H731h-33.8V176.3h9.6v93.3h43.8v-55.2h36.2v-43.6h37.1v43.6h36.2v55.2h53.3V302.5z"/>
<path class="st0" d="M697.2,306.4v125.3h216.2V306.4H697.2z M972.1,579.3l0.3-99.2h-59v-44.5H697.2v218c17.7,0.7,35.5,0.5,53.2-0.6
	l0,0h0.3c8.4-0.5,16.9-1.3,25.2-2.3h0.2c44.7-5.2,88.4-16.9,129.7-34.6"/>
<path class="st0" d="M998.2,435.6h50.4c-0.4,25.5-5.6,50.5-16.7,73.5c-9.3,19.2-22.2,35.9-37.5,50.6V480h3.8V435.6z"/>
<path class="st0" d="M1048.7,431.7h-50.5V327h27.3C1039.6,360,1048.6,396.3,1048.7,431.7z"/>
<rect x="644.7" y="211.4" class="st0" width="30.5" height="39.6"/>
<rect x="644.7" y="293.4" class="st0" width="30.5" height="9.1"/>
<rect x="644.7" y="306.4" class="st0" width="30.5" height="26.6"/>
<rect x="644.7" y="375.5" class="st0" width="30.5" height="39.6"/>
<rect x="644.7" y="457.5" class="st0" width="30.5" height="39.6"/>
<path class="st0" d="M675.3,569.9l0.9,0.1L675.3,569.9v9.2h-30.5v-39.6h30.5V569.9z"/>
<path class="st0" d="M675.3,621.6v30.6c-10.2-0.9-20.4-2-30.5-3.5v-27L675.3,621.6z"/>
<rect x="392.3" y="428.8" class="st0" width="130.9" height="2.9"/>
<rect x="392.3" y="435.6" class="st0" width="130.9" height="11.1"/>
<rect x="392.3" y="483.3" class="st0" width="130.9" height="17.9"/>
<path class="st0" d="M523.2,537.7v17.9H420.8c-4.4-3.4-8.8-6.9-13.2-10.5c-3-2.5-6-5-9-7.5L523.2,537.7z"/>
<path class="st0" d="M523.2,592.2v17.9h-10.8c-12.2-5.5-24.1-11.5-35.7-17.9H523.2z"/>
<rect x="750.4" y="318.5" class="st0" width="25.8" height="25.8"/>
<rect x="192.5" y="198.5" class="st0" width="25.8" height="25.8"/>
<rect x="192.5" y="258.3" class="st0" width="25.8" height="25.8"/>
<rect x="192.5" y="318.2" class="st0" width="25.8" height="25.8"/>
<rect x="192.5" y="378" class="st0" width="25.8" height="25.8"/>
<rect x="192.5" y="437.9" class="st0" width="25.8" height="25.8"/>
<rect x="192.5" y="497.7" class="st0" width="25.8" height="25.8"/>
<rect x="848.8" y="318.5" class="st0" width="25.8" height="25.8"/>
<rect x="750.4" y="382.1" class="st0" width="25.8" height="25.8"/>
<rect x="848.8" y="382.1" class="st0" width="25.8" height="25.8"/>
<rect x="750.4" y="445.6" class="st0" width="25.8" height="25.8"/>
<rect x="848.8" y="445.6" class="st0" width="25.8" height="25.8"/>
<rect x="750.4" y="509.2" class="st0" width="25.8" height="25.8"/>
<rect x="848.8" y="509.2" class="st0" width="25.8" height="25.8"/>
<rect x="750.4" y="572.7" class="st0" width="25.8" height="25.8"/>
<rect x="848.8" y="572.7" class="st0" width="25.8" height="25.8"/>
<polygon class="st0" points="750.4,652.9 750.4,636.3 776.2,636.3 776.2,650.5 "/>
<path class="st0" d="M63.8,270.3V285H152v-14.7H63.8z M72.6,284.1h-7.2v-12.8h7.2V284.1z M81.4,284.1h-7.2v-12.8h7.2V284.1z
	 M90.2,284.1h-7.2v-12.8h7.2L90.2,284.1z M98.9,284.1h-7.2v-12.8h7.2V284.1z M107.7,284.1h-7.2v-12.8h7.2V284.1z M116.5,284.1h-7.2
	v-12.8h7.2V284.1z M125.3,284.1H118v-12.8h7.2V284.1z M134,284.1h-7.2v-12.8h7.2V284.1z M142.8,284.1h-7.2v-12.8h7.2V284.1z
	 M151.6,284.1h-7.2v-12.8h7.2L151.6,284.1z"/>
<path class="st0" d="M63.8,313.2v14.7H152v-14.7H63.8z M72.6,327h-7.2v-12.9h7.2V327z M81.4,327h-7.2v-12.9h7.2V327z M90.2,327h-7.2
	v-12.9h7.2L90.2,327z M98.9,327h-7.2v-12.9h7.2V327z M107.7,327h-7.2v-12.9h7.2V327z M116.5,327h-7.2v-12.9h7.2V327z M125.3,327H118
	v-12.9h7.2V327z M134,327h-7.2v-12.9h7.2V327z M142.8,327h-7.2v-12.9h7.2V327z M151.6,327h-7.2v-12.9h7.2L151.6,327z"/>
<path class="st0" d="M63.8,356.1v14.7H152v-14.7H63.8z M72.6,369.9h-7.2V357h7.2V369.9z M81.4,369.9h-7.2V357h7.2V369.9z
	 M90.2,369.9h-7.2V357h7.2L90.2,369.9z M98.9,369.9h-7.2V357h7.2V369.9z M107.7,369.9h-7.2V357h7.2V369.9z M116.5,369.9h-7.2V357
	h7.2V369.9z M125.3,369.9H118V357h7.2V369.9z M134,369.9h-7.2V357h7.2V369.9z M142.8,369.9h-7.2V357h7.2V369.9z M151.6,369.9h-7.2
	V357h7.2L151.6,369.9z"/>
<path class="st0" d="M63.8,399v14.7H152V399H63.8z M72.6,412.8h-7.2v-12.9h7.2V412.8z M81.4,412.8h-7.2v-12.9h7.2V412.8z
	 M90.2,412.8h-7.2v-12.9h7.2L90.2,412.8z M98.9,412.8h-7.2v-12.9h7.2V412.8z M107.7,412.8h-7.2v-12.9h7.2V412.8z M116.5,412.8h-7.2
	v-12.9h7.2V412.8z M125.3,412.8H118v-12.9h7.2V412.8z M134,412.8h-7.2v-12.9h7.2V412.8z M142.8,412.8h-7.2v-12.9h7.2V412.8z
	 M151.6,412.8h-7.2v-12.9h7.2L151.6,412.8z"/>
<path class="st0" d="M64.2,441.9c0.4,1.4,0.8,2.8,1.2,4.1v-3.2h7.2v12.9h-3.9c0.1,0.3,0.2,0.6,0.4,0.9H152v-14.7H64.2z M81.4,455.7
	h-7.2v-12.9h7.2V455.7z M90.2,455.7h-7.2v-12.9h7.2V455.7z M98.9,455.7h-7.2v-12.9h7.2V455.7z M107.7,455.7h-7.2v-12.9h7.2V455.7z
	 M116.5,455.7h-7.2v-12.9h7.2V455.7z M125.3,455.7H118v-12.9h7.2V455.7z M134,455.7h-7.2v-12.9h7.2V455.7z M142.8,455.7h-7.2v-12.9
	h7.2V455.7z M151.6,455.7h-7.3v-12.9h7.2L151.6,455.7z"/>
<path class="st0" d="M84.7,484.8c0.2,0.3,0.4,0.6,0.7,0.9h4.8v6.2l1.6,1.8v-8h7.2v12.9H96c0.3,0.3,0.6,0.6,0.9,0.9H152v-14.8H84.7z
	 M107.7,498.6h-7.2v-12.9h7.2V498.6z M116.5,498.6h-7.2v-12.9h7.2V498.6z M125.2,498.6H118v-12.9h7.2V498.6z M134,498.6h-7.2v-12.9
	h7.2V498.6z M142.8,498.6h-7.2v-12.9h7.2V498.6z M151.6,498.6h-7.2v-12.9h7.2L151.6,498.6z"/>
<path class="st0" d="M133.1,527.7c0.8,0.5,1.7,0.9,2.5,1.4v-0.5h7.2v4.1l1.5,0.7v-4.8h7.2v7.8c0.1,0.1,0.3,0.1,0.4,0.2v-8.9
	L133.1,527.7z"/>
<path class="st0" d="M731.1,302.5L731.1,302.5L731.1,302.5z M675.3,569.9L675.3,569.9h0.9H675.3z M617,433.9
	c0.2,0.6,0.3,1.2,0.5,1.7l0,0C617.3,435,617.2,434.4,617,433.9L617,433.9z M731,302.6L731,302.6L731,302.6z M183.8,166.9v3.9h40.5
	v-3.9H183.8z M675.3,569.9L675.3,569.9h0.9H675.3z M617,433.9c0.2,0.6,0.3,1.2,0.5,1.7l0,0C617.3,435,617.2,434.4,617,433.9
	L617,433.9z M731,302.5L731,302.5L731,302.5z M675.3,569.9L675.3,569.9h0.9H675.3z M617,433.9c0.2,0.6,0.3,1.2,0.5,1.7l0,0
	C617.3,435,617.2,434.4,617,433.9L617,433.9z"/>
<path class="st1" d="M623.8,379.8c-0.1,0.3-0.3,0.6-0.4,0.9l-0.1,0.2c-0.3,0.5-0.6,1-0.9,1.5c-0.3,0-0.5,0-0.8,0.1l1.1-2.4
	C623.1,379.9,623.5,379.8,623.8,379.8z"/>
</svg>
