<svg xmlns="http://www.w3.org/2000/svg" xmlns:xlink="http://www.w3.org/1999/xlink" viewBox="0 0 767.58 399.04"><defs><style>.cls-1{fill:none;}.cls-2{clip-path:url(#clip-path);}.cls-3{fill:#ed1c24;}.cls-4{fill:#7c131a;}.cls-5{fill:#00aeef;opacity:0.7;}.cls-6{fill:#be1e2d;}.cls-7{fill:#2e3192;}</style><clipPath id="clip-path" transform="translate(-0.52)"><rect class="cls-1" width="768.61" height="206.12"/></clipPath></defs><title>Asset 1</title><g id="Layer_2" data-name="Layer 2"><g id="Layer_1-2" data-name="Layer 1"><g class="cls-2"><path class="cls-3" d="M229.47,0S47.93,186.62.52,87.28v219.6L310.14,0Z" transform="translate(-0.52)"/><path class="cls-4" d="M.52,0H250.21S95.4,168.34.52,139.31Z" transform="translate(-0.52)"/><path class="cls-5" d="M.52,199.52S107.9,306.86,177.29,252.68s119.36-99.24,207-99.24S510,74.08,577.48,74.08,723.42,184,768.09,139.32V0H310.14Z" transform="translate(-0.52)"/><path class="cls-6" d="M.52,259.86s54-104,108-92.49,125.53,68.86,176.44-.89S357,26.08,458.18,26.08,645.42,79.26,689.09,0h79V74.08s-73.24,110.83-237,89.44c-117.61-15.36-132,50.36-170.84,89.16-39.67,39.67-148,94.84-237.64,74C46.54,308.93.52,369.36.52,369.36" transform="translate(-0.52)"/><polygon class="cls-4" points="0 399.04 767.58 0 767.58 399.04 0 399.04"/><path class="cls-7" d="M.52,369.36S58.76,294.23,139.79,328L.52,399Z" transform="translate(-0.52)"/></g></g></g></svg>